<?xml version="1.0" standalone="no"?>
<!DOCTYPE svg PUBLIC "-//W3C//DTD SVG 20010904//EN"
 "http://www.w3.org/TR/2001/REC-SVG-20010904/DTD/svg10.dtd">
<svg version="1.0" xmlns="http://www.w3.org/2000/svg"
 width="900.000000pt" height="507.000000pt" viewBox="0 0 900.000000 507.000000"
 preserveAspectRatio="xMidYMid meet">
<metadata>
Created by potrace 1.10, written by Peter Selinger 2001-2011
</metadata>
<g transform="translate(0.000000,507.000000) scale(0.100000,-0.100000)"
fill="#61dafb" stroke="none">
<path d="M3950 5041 c0 -39 -27 -45 -138 -30 -67 9 -101 9 -154 -1 -38 -7 -71
-11 -74 -7 -3 3 -27 -1 -52 -9 -36 -10 -55 -11 -80 -3 -25 8 -43 7 -80 -5
-123 -40 -166 -50 -170 -38 -5 16 -33 15 -56 -3 -11 -8 -37 -15 -57 -15 -21 0
-41 -5 -44 -10 -4 -6 -13 -7 -23 -1 -12 6 -24 5 -37 -5 -10 -8 -35 -14 -55
-14 -20 0 -51 -7 -69 -16 -17 -8 -54 -17 -81 -18 -27 -1 -53 -6 -57 -9 -3 -4
-15 -7 -26 -7 -11 0 -40 -6 -66 -14 -25 -8 -73 -22 -106 -32 -33 -9 -78 -22
-100 -29 -22 -7 -87 -27 -145 -45 -58 -17 -120 -38 -138 -46 -18 -8 -40 -14
-50 -14 -9 0 -26 -7 -36 -15 -11 -8 -26 -15 -33 -15 -13 0 -45 -13 -140 -56
-17 -8 -36 -14 -42 -14 -37 0 -574 -270 -648 -326 -17 -13 -34 -24 -37 -24 -6
0 -77 -48 -183 -123 -29 -20 -55 -37 -59 -37 -3 0 -30 -20 -58 -45 -29 -25
-58 -45 -64 -45 -6 0 -14 -9 -17 -20 -3 -11 -16 -25 -28 -32 -64 -34 -317
-285 -380 -378 -9 -14 -33 -45 -51 -70 -50 -64 -116 -176 -116 -194 0 -8 -10
-30 -23 -49 -13 -19 -40 -74 -61 -123 -21 -49 -42 -98 -47 -109 -25 -56 -56
-322 -40 -338 4 -4 22 3 39 17 18 16 36 24 46 20 9 -3 16 -1 16 5 0 6 -4 11
-9 11 -5 0 -11 12 -14 28 -3 15 -9 35 -12 44 -6 16 -3 17 26 12 19 -4 41 -13
50 -21 17 -15 64 -9 75 9 9 14 -3 21 -49 27 -40 6 -42 8 -39 37 2 20 -4 36
-18 49 -29 26 -25 49 15 84 19 17 35 37 35 46 0 9 16 25 36 37 30 17 34 25 29
47 -4 19 3 44 23 81 23 43 27 61 21 84 -9 31 8 63 45 86 17 11 23 9 38 -10 15
-18 21 -20 33 -10 8 7 15 26 15 42 0 24 -3 29 -17 24 -16 -7 -33 9 -33 31 0
18 52 63 73 63 18 0 56 36 57 53 1 23 43 98 60 107 10 5 66 56 124 113 107
104 150 142 221 196 22 17 49 39 60 50 11 10 36 21 55 25 23 4 48 20 74 47 36
39 41 41 80 35 38 -6 45 -4 71 24 17 18 51 44 77 58 27 15 48 32 48 38 0 23
39 46 70 42 21 -3 35 1 47 14 10 11 30 18 55 18 22 0 48 5 58 10 20 11 41 -7
23 -19 -6 -3 -14 -22 -18 -41 l-8 -35 32 34 c17 18 31 36 32 40 1 19 120 159
156 185 35 24 45 27 57 17 12 -10 21 -10 47 3 18 9 34 14 37 11 13 -13 -49
-125 -70 -125 -15 0 -103 -69 -129 -102 -14 -18 -47 -70 -73 -115 -26 -45 -54
-84 -62 -87 -8 -3 -22 -21 -31 -41 -9 -19 -20 -35 -24 -35 -4 0 -10 -12 -13
-26 -4 -15 -27 -46 -52 -70 -24 -24 -44 -52 -44 -62 0 -10 -9 -27 -20 -37 -11
-10 -20 -30 -20 -45 0 -15 -11 -43 -24 -63 -13 -19 -27 -46 -31 -58 -16 -50
-49 -105 -81 -135 -21 -19 -34 -41 -34 -56 0 -14 -12 -35 -26 -49 -21 -19 -25
-30 -20 -57 4 -25 1 -34 -12 -39 -9 -3 -25 -14 -35 -25 -10 -10 -29 -18 -42
-18 -62 0 -4 -50 61 -53 33 -1 53 -8 62 -19 7 -10 19 -18 27 -18 7 0 19 -16
25 -35 9 -27 21 -39 54 -54 34 -15 44 -25 49 -50 4 -19 13 -31 22 -31 8 0 21
-11 27 -25 10 -21 8 -27 -7 -39 -12 -9 -15 -15 -7 -20 7 -4 12 -25 12 -47 0
-38 2 -40 28 -37 23 3 27 7 25 33 -1 17 -12 37 -25 47 -20 15 -21 19 -8 28 8
5 23 10 33 10 22 0 22 11 -4 44 -19 24 -19 27 -4 33 28 10 69 -10 75 -37 7
-31 30 -36 70 -15 27 14 35 14 48 3 30 -24 63 -39 72 -33 8 5 87 -21 103 -35
4 -3 0 -21 -9 -39 -12 -24 -13 -36 -5 -44 6 -6 11 -34 12 -61 0 -28 3 -44 6
-36 3 8 14 23 24 33 25 23 24 48 -1 54 -39 10 -15 53 30 53 35 0 41 -7 28 -36
-9 -18 -8 -28 0 -36 9 -9 18 -5 39 19 31 34 68 47 94 33 11 -7 31 -5 61 6 23
8 52 14 63 13 38 -5 91 14 191 67 55 30 108 54 118 54 10 0 37 14 61 30 24 17
48 30 54 30 5 0 27 11 47 25 21 14 49 28 63 31 14 3 41 12 59 20 18 8 41 14
51 14 10 0 21 6 24 14 4 11 21 14 64 11 32 -1 84 2 116 8 65 11 159 -4 189
-30 20 -18 48 -11 48 13 0 12 6 15 23 9 68 -20 87 -23 87 -10 0 7 -12 16 -27
20 -14 3 -45 19 -67 35 -38 28 -48 30 -141 31 -179 3 -276 -5 -320 -28 -22
-11 -73 -30 -113 -42 -44 -13 -100 -40 -140 -68 -82 -56 -114 -66 -166 -52
-51 14 -527 15 -551 1 -21 -11 -27 -9 90 -38 62 -15 87 -16 220 -6 83 6 167
14 188 18 42 7 47 -4 17 -31 -32 -29 -212 -90 -237 -81 -7 3 -40 0 -73 -6 -57
-11 -65 -10 -108 12 -26 12 -55 27 -64 31 -10 5 -23 9 -29 9 -13 0 -60 34 -95
69 -16 16 -38 26 -62 27 -132 9 -161 16 -167 35 -5 16 -12 19 -40 13 -25 -4
-38 -1 -53 14 -11 11 -39 23 -63 27 -78 12 -109 27 -109 51 0 13 4 25 9 28 5
3 25 45 46 93 20 49 48 111 60 138 13 28 26 57 29 65 3 8 16 31 28 50 11 19
42 76 68 125 26 50 60 110 74 135 14 25 29 52 33 60 3 8 38 69 77 135 69 116
99 174 126 243 15 38 34 41 94 13 50 -23 244 -78 304 -86 23 -3 65 -10 93 -16
46 -10 51 -14 75 -62 15 -28 35 -63 46 -78 22 -30 51 -103 75 -189 19 -71 35
-83 98 -76 76 9 231 63 339 118 48 25 76 18 100 -24 11 -18 43 -60 71 -93 28
-33 64 -78 80 -100 16 -22 32 -42 35 -45 3 -3 27 -32 52 -65 66 -87 87 -108
141 -143 57 -38 57 -38 57 -12 0 11 -4 20 -8 20 -11 0 -35 68 -27 80 9 15 -23
82 -53 110 -15 14 -67 59 -115 99 -51 43 -87 80 -85 89 2 9 71 43 168 84 416
176 443 190 551 286 115 102 315 222 370 222 4 0 17 -15 28 -34 12 -18 34 -39
51 -46 19 -8 33 -23 40 -44 6 -21 23 -38 48 -51 20 -11 39 -22 42 -25 3 -4 21
-16 40 -27 20 -12 67 -54 105 -92 38 -39 75 -71 81 -71 14 0 94 -93 94 -108 0
-6 -7 -12 -16 -14 -26 -5 29 -58 61 -58 22 0 25 -3 20 -20 -5 -16 -2 -20 20
-20 31 0 42 -22 26 -57 -16 -34 2 -56 23 -28 14 19 15 19 48 1 19 -10 41 -31
51 -47 9 -16 25 -29 35 -29 28 0 109 -68 121 -101 5 -16 15 -29 21 -29 18 0
100 -86 120 -126 10 -20 16 -42 13 -50 -6 -15 61 -49 77 -39 5 3 6 -10 3 -29
-5 -29 -2 -35 18 -41 23 -7 43 -26 75 -71 13 -19 13 -26 -3 -58 -15 -32 -15
-38 -3 -46 10 -7 20 -4 30 8 8 10 28 24 43 30 24 10 35 9 64 -4 19 -10 39 -28
44 -41 4 -12 12 -23 17 -23 4 0 15 -13 25 -29 9 -15 31 -34 49 -41 62 -25 128
-100 109 -124 -21 -25 19 -29 45 -5 31 29 54 19 54 -26 l0 -35 48 0 c48 0 147
-44 147 -65 0 -5 -25 -11 -55 -12 -91 -5 -119 -13 -156 -45 -39 -35 -65 -86
-70 -138 -2 -19 -5 -48 -6 -64 -4 -38 12 -42 47 -12 23 20 27 30 23 58 -5 28
0 39 33 76 21 24 43 41 48 38 12 -8 2 -146 -12 -164 -7 -9 -6 -25 1 -50 6 -20
14 -49 17 -64 6 -29 38 -53 60 -44 8 3 31 39 51 81 37 75 63 105 94 105 15 0
60 50 60 66 0 3 14 24 31 45 17 21 28 43 24 49 -4 6 -33 24 -64 40 -39 19 -65
41 -79 65 -12 19 -34 40 -49 46 -15 6 -35 15 -43 20 -8 5 -35 18 -60 29 -28
13 -79 56 -136 114 -82 86 -149 136 -181 136 -6 0 -33 27 -58 60 -25 33 -50
60 -55 60 -5 0 -37 30 -72 66 -35 36 -117 120 -184 187 -66 67 -129 137 -139
155 -11 17 -23 32 -27 32 -4 0 -33 23 -64 50 -31 28 -62 50 -69 50 -14 0 -285
273 -285 287 0 28 -360 345 -426 375 -13 6 -32 30 -43 54 -32 66 -49 71 -113
28 -29 -20 -80 -49 -113 -65 -33 -16 -115 -67 -183 -114 -68 -47 -126 -85
-128 -85 -3 0 -17 -8 -32 -19 -104 -71 -447 -250 -547 -286 -83 -30 -138 -26
-133 9 3 20 20 29 78 40 31 6 67 32 58 41 -3 4 -62 8 -129 9 -108 2 -124 1
-138 -16 -32 -37 -94 -18 -168 53 -77 74 -119 95 -198 102 -56 5 -90 16 -172
57 -56 27 -108 50 -116 50 -40 0 -85 68 -57 85 25 15 -6 22 -90 20 -103 -4
-126 7 -149 70 -12 34 -11 38 10 61 15 16 29 22 42 18 14 -5 29 3 52 29 21 22
49 40 76 47 24 7 67 22 94 35 79 35 157 57 200 54 53 -3 119 34 135 77 10 25
59 40 160 50 41 3 82 10 91 15 30 15 204 40 297 42 55 2 96 7 100 14 7 10 181
40 367 63 50 6 117 14 150 18 104 13 133 4 195 -62 30 -32 57 -63 59 -69 2 -7
12 -21 22 -32 11 -12 19 -39 21 -70 3 -46 5 -50 37 -59 31 -9 33 -12 28 -43
-5 -28 -1 -36 26 -57 38 -28 87 -40 87 -20 0 18 -38 82 -72 122 -15 18 -28 39
-28 46 0 7 -9 25 -20 39 -11 14 -20 34 -20 45 0 20 23 46 32 37 3 -3 43 -10
89 -16 80 -10 281 -13 1339 -19 409 -3 567 -8 740 -25 113 -11 232 -29 278
-42 55 -16 106 -11 99 10 -2 7 -23 12 -47 13 -28 1 -48 7 -55 18 -9 11 -27 16
-63 16 -35 0 -52 4 -56 15 -3 9 -19 15 -41 15 -19 0 -43 4 -53 10 -21 11 -127
32 -162 31 -31 -1 -96 16 -131 35 -22 11 -28 11 -42 -3 -14 -14 -22 -15 -57
-4 -22 6 -45 9 -50 6 -6 -3 -355 -6 -777 -5 -1023 2 -998 3 -1030 -22 -28 -23
-62 10 -114 107 -8 17 -30 37 -47 45 -17 8 -32 23 -32 33 0 9 -4 17 -10 17 -5
0 -10 -13 -10 -29z m-1230 -995 c0 -28 -8 -39 -47 -70 -74 -57 -99 -44 -91 50
3 37 5 39 43 45 90 14 95 12 95 -25z m-1450 -732 c0 -8 -4 -14 -10 -14 -5 0
-10 9 -10 21 0 11 5 17 10 14 6 -3 10 -13 10 -21z m4238 -42 c2 -7 -3 -12 -12
-12 -9 0 -16 7 -16 16 0 17 22 14 28 -4z m-5278 -122 c0 -11 -4 -20 -9 -20
-11 0 -22 26 -14 34 12 12 23 5 23 -14z m6090 -586 c0 -14 -6 -24 -14 -24 -21
0 -25 11 -15 38 11 28 29 20 29 -14z m-126 11 c43 -18 45 -27 9 -54 -25 -20
-27 -21 -45 -4 -39 35 -46 73 -14 73 8 0 30 -7 50 -15z"/>
<path d="M5000 5050 c0 -17 7 -20 39 -20 71 0 131 12 131 26 0 11 -20 14 -85
14 -78 0 -85 -2 -85 -20z"/>
<path d="M5247 5024 c-15 -16 8 -24 66 -24 76 0 106 14 50 23 -49 9 -108 9
-116 1z"/>
<path d="M5570 4985 c0 -15 35 -20 64 -9 25 10 8 24 -30 24 -24 0 -34 -5 -34
-15z"/>
<path d="M5815 4960 c-8 -12 20 -24 35 -15 6 3 8 11 5 16 -8 12 -32 12 -40 -1z"/>
<path d="M5900 4921 c0 -6 5 -13 10 -16 14 -9 52 4 45 16 -8 12 -55 12 -55 0z"/>
<path d="M6760 4720 c-13 -9 -13 -11 0 -20 19 -12 35 -8 35 10 0 18 -16 22
-35 10z"/>
<path d="M6860 4686 c0 -8 4 -17 9 -20 11 -7 33 18 24 27 -12 12 -33 7 -33 -7z"/>
<path d="M6934 4659 c-6 -10 11 -29 26 -29 3 0 11 4 19 9 17 11 5 31 -19 31
-10 0 -22 -5 -26 -11z"/>
<path d="M7010 4625 c0 -21 27 -30 45 -15 19 16 10 30 -21 30 -15 0 -24 -6
-24 -15z"/>
<path d="M7100 4596 c0 -18 47 -49 55 -36 3 6 2 10 -4 10 -5 0 -13 9 -16 20
-7 23 -35 27 -35 6z"/>
<path d="M2441 4555 c-19 -19 -38 -35 -42 -35 -12 0 -11 -27 0 -34 15 -10 118
43 135 68 18 29 12 36 -28 36 -22 0 -41 -10 -65 -35z"/>
<path d="M7186 4572 c-3 -5 3 -15 13 -24 10 -9 20 -21 23 -28 2 -8 12 -10 26
-6 29 10 28 24 -2 36 -13 5 -27 14 -31 19 -7 13 -22 14 -29 3z"/>
<path d="M2906 4522 c-9 -11 -42 -25 -73 -32 -41 -9 -67 -22 -90 -45 -41 -41
-43 -58 -5 -51 15 3 45 8 68 11 32 5 51 17 92 60 29 29 52 58 52 64 0 17 -25
13 -44 -7z"/>
<path d="M7310 4505 c0 -8 7 -15 15 -15 8 0 15 7 15 15 0 8 -7 15 -15 15 -8 0
-15 -7 -15 -15z"/>
<path d="M7365 4479 c-4 -6 -5 -12 -4 -13 16 -12 76 -36 91 -36 28 0 17 24
-13 28 -13 2 -28 10 -32 18 -9 17 -33 18 -42 3z"/>
<path d="M3620 4415 c-7 -8 -17 -15 -22 -15 -6 0 -26 -13 -45 -30 -18 -16 -42
-30 -52 -30 -10 0 -24 -6 -30 -14 -6 -8 -31 -19 -55 -25 -24 -6 -49 -17 -56
-26 -7 -8 -20 -15 -29 -15 -10 0 -40 -16 -67 -35 -27 -19 -57 -35 -66 -35 -9
0 -19 -4 -23 -10 -14 -22 -180 -59 -267 -60 -38 0 -68 -3 -68 -8 0 -18 124
-81 160 -82 15 0 30 8 38 20 7 11 16 20 22 20 25 0 297 144 320 169 13 15 70
51 80 51 12 0 73 41 78 53 2 4 9 7 17 7 7 0 32 18 56 40 24 22 39 40 33 40 -6
0 -17 -7 -24 -15z"/>
<path d="M7487 4424 c-9 -9 4 -34 18 -34 14 0 27 25 18 34 -4 3 -12 6 -18 6
-6 0 -14 -3 -18 -6z"/>
<path d="M7547 4393 c-4 -3 -7 -10 -7 -14 0 -11 59 -39 82 -39 25 0 18 24 -8
29 -10 2 -23 9 -27 17 -8 15 -29 19 -40 7z"/>
<path d="M2980 4380 c0 -5 7 -10 15 -10 8 0 15 5 15 10 0 6 -7 10 -15 10 -8 0
-15 -4 -15 -10z"/>
<path d="M7760 4269 c0 -17 43 -48 68 -49 32 0 27 15 -12 39 -37 23 -56 27
-56 10z"/>
<path d="M7885 4200 c-8 -12 12 -40 29 -40 6 0 17 -9 24 -20 7 -11 18 -17 27
-14 20 8 19 23 -2 31 -10 3 -30 17 -44 30 -18 17 -29 21 -34 13z"/>
<path d="M7996 4121 c-7 -11 18 -33 27 -24 4 3 7 12 7 20 0 15 -26 18 -34 4z"/>
<path d="M8058 4084 c-3 -3 -4 -14 -1 -25 4 -13 14 -19 33 -19 19 0 29 -6 33
-20 3 -11 10 -20 16 -20 6 0 11 9 11 20 0 11 -6 20 -13 20 -8 0 -24 11 -37 25
-24 25 -32 29 -42 19z"/>
<path d="M8240 3937 c0 -16 37 -57 50 -57 18 0 10 32 -12 51 -27 22 -38 24
-38 6z"/>
<path d="M1040 3856 c0 -13 -7 -26 -15 -30 -19 -7 -20 -46 -1 -46 20 0 33 20
41 63 6 30 4 37 -9 37 -10 0 -16 -9 -16 -24z"/>
<path d="M8330 3845 c0 -8 7 -15 15 -15 8 0 15 -4 15 -9 0 -11 127 -141 137
-141 3 0 12 -8 19 -17 7 -10 16 -14 21 -10 4 5 0 14 -10 21 -9 7 -17 16 -17
20 0 3 -19 24 -42 46 -24 23 -62 59 -85 80 -45 44 -53 47 -53 25z"/>
<path d="M4620 3842 c0 -5 7 -13 16 -16 10 -4 14 -1 12 6 -5 15 -28 23 -28 10z"/>
<path d="M8546 3633 c6 -4 14 -18 18 -30 4 -13 11 -23 16 -23 5 0 16 -3 25 -6
13 -6 14 -3 4 19 -6 14 -19 28 -28 31 -9 3 -23 9 -31 12 -9 3 -11 2 -4 -3z"/>
<path d="M3767 3603 c-11 -11 -8 -71 4 -79 16 -9 36 15 44 54 6 29 4 32 -18
32 -13 0 -27 -3 -30 -7z"/>
<path d="M4617 3572 c-10 -10 -17 -22 -17 -25 0 -20 121 10 128 32 7 20 -93
13 -111 -7z"/>
<path d="M840 3559 c0 -12 -8 -23 -20 -26 -11 -3 -20 -9 -20 -13 0 -4 -11 -12
-24 -18 -13 -5 -26 -20 -29 -31 -4 -17 -1 -21 18 -21 13 0 25 7 29 15 3 8 16
15 30 15 18 0 26 -7 31 -27 9 -38 48 -75 70 -67 16 6 15 9 -5 24 l-23 18 24
12 c34 18 35 19 14 34 -17 12 -17 16 -6 30 19 22 6 33 -14 12 -21 -20 -75 -22
-75 -2 0 8 11 23 25 34 14 11 25 23 25 26 0 3 -11 6 -25 6 -19 0 -25 -5 -25
-21z"/>
<path d="M5089 3513 c8 -31 38 -43 47 -19 8 20 -13 46 -36 46 -15 0 -17 -5
-11 -27z"/>
<path d="M8630 3521 c0 -10 7 -21 15 -25 8 -3 15 -11 15 -19 0 -7 11 -24 25
-37 l25 -23 0 26 c0 15 -3 27 -7 27 -5 0 -19 16 -32 35 -26 39 -41 45 -41 16z"/>
<path d="M5177 3498 c-26 -14 -20 -44 13 -68 57 -41 73 -7 25 51 -16 20 -26
24 -38 17z"/>
<path d="M480 3490 c0 -16 38 -50 56 -50 9 0 24 -10 34 -22 17 -21 21 -22 54
-10 30 11 40 11 65 -3 44 -22 54 -20 46 13 -14 57 -76 87 -88 42 -8 -31 -53
-26 -87 10 -27 29 -80 42 -80 20z"/>
<path d="M4964 3425 c-4 -9 -2 -21 3 -26 14 -14 45 1 41 20 -4 22 -37 26 -44
6z"/>
<path d="M990 3414 c0 -9 5 -14 12 -12 18 6 21 28 4 28 -9 0 -16 -7 -16 -16z"/>
<path d="M3342 3400 c-35 -46 -29 -82 19 -124 66 -56 178 -83 230 -56 17 9 28
3 79 -46 33 -31 57 -61 54 -65 -9 -15 -63 -10 -89 7 -13 9 -30 14 -37 11 -8
-4 -5 -8 10 -12 12 -4 22 -11 22 -15 0 -5 18 -11 39 -15 22 -4 45 -13 52 -21
6 -8 21 -14 33 -14 12 0 35 -13 51 -30 31 -32 55 -39 55 -15 0 8 6 15 14 15 7
0 19 -7 26 -15 11 -13 8 -15 -14 -15 -28 0 -34 -18 -14 -38 7 -7 22 -12 34
-12 18 0 21 4 16 22 l-5 22 30 -22 c36 -26 93 -89 93 -103 0 -6 14 -23 32 -39
28 -26 31 -33 22 -57 -9 -25 -5 -32 48 -84 l56 -56 -5 -61 -6 -62 57 -56 57
-57 -6 -73 c-6 -61 -5 -75 8 -80 21 -8 9 -43 -19 -56 -18 -8 -24 -19 -24 -43
0 -38 -18 -95 -30 -95 -5 0 -12 4 -15 10 -4 6 -13 5 -25 -2 -29 -18 -49 14
-50 77 0 90 23 121 56 78 13 -17 15 -17 29 1 21 28 19 82 -5 106 -26 26 -80
26 -107 0 -17 -15 -22 -36 -27 -97 -3 -43 -11 -98 -17 -122 -9 -39 -7 -48 11
-73 11 -15 20 -31 20 -36 0 -19 -126 -65 -405 -147 -27 -8 -74 -21 -102 -30
-86 -27 -114 -12 -99 50 5 18 15 24 51 29 46 7 95 41 118 80 6 11 14 57 17
101 l5 80 35 5 c35 5 104 44 128 72 6 8 15 37 18 64 6 42 14 57 59 104 61 63
85 113 85 177 0 24 4 63 10 86 8 33 6 56 -8 105 -9 35 -21 64 -27 65 -5 1 -16
-16 -23 -38 -13 -43 -45 -74 -105 -106 -26 -14 -43 -17 -54 -11 -9 6 -28 6
-42 2 -30 -8 -61 1 -80 24 -7 9 -20 16 -27 16 -7 0 -36 23 -63 50 -27 28 -54
50 -59 50 -15 0 -90 102 -97 133 -9 34 -25 34 -56 1 -21 -22 -22 -27 -9 -37 8
-7 27 -30 42 -52 53 -76 192 -207 286 -267 50 -33 92 -64 92 -68 0 -5 14 -24
30 -42 35 -38 40 -86 11 -112 -11 -10 -25 -31 -31 -47 -15 -35 -25 -37 -35 -6
-6 21 -7 21 -20 -10 -15 -33 -35 -52 -35 -34 0 16 -36 13 -50 -4 -7 -8 -23
-15 -36 -15 -30 0 -138 65 -170 103 l-26 31 23 17 c19 14 21 20 11 32 -20 24
-61 30 -88 12 -31 -20 -30 -35 7 -95 35 -57 87 -101 151 -129 65 -27 110 -90
75 -104 -7 -3 -19 -24 -27 -47 -9 -28 -25 -49 -45 -61 -16 -10 -32 -29 -35
-41 -5 -19 -14 -24 -52 -26 -26 -2 -59 3 -75 11 -15 7 -53 19 -84 27 -48 11
-59 10 -87 -4 -36 -19 -37 -23 -17 -50 13 -17 18 -18 40 -8 38 18 75 14 124
-11 84 -43 76 -82 -21 -106 -29 -8 -59 -18 -65 -23 -7 -6 -20 -7 -29 -4 -15 6
-15 9 5 27 22 21 20 39 -5 39 -8 0 -20 11 -26 25 -13 29 -11 29 -63 11 -22 -8
-41 -21 -43 -30 -6 -28 15 -51 47 -51 54 0 34 -20 -30 -29 -50 -7 -64 -6 -73
5 -8 10 -35 14 -101 14 -87 0 -90 -1 -88 -22 2 -18 -4 -23 -34 -29 -21 -4 -50
-2 -68 5 -18 6 -46 8 -63 5 -21 -4 -32 -3 -32 5 0 19 -49 12 -60 -9 -12 -23
-54 -27 -94 -9 -38 18 -133 3 -141 -22 -4 -11 -15 -19 -29 -19 -32 0 -84 28
-96 51 -6 10 -19 19 -30 19 -10 0 -25 8 -32 18 -7 10 -21 21 -32 25 -14 6 -17
14 -13 35 14 71 19 66 -61 64 -78 -2 -172 19 -192 43 -7 8 -25 15 -41 15 -22
0 -29 5 -29 20 0 29 30 40 115 42 71 1 77 3 90 27 7 15 16 43 20 62 5 29 3 38
-10 43 -12 4 -18 0 -22 -14 -6 -24 -62 -50 -105 -50 -16 0 -42 10 -57 21 l-29
21 -51 -28 c-28 -16 -51 -32 -51 -36 0 -5 -17 -8 -38 -8 -21 0 -47 -7 -58 -15
-12 -8 -24 -12 -26 -9 -11 10 5 55 23 65 11 5 19 17 18 27 0 14 -3 13 -16 -5
-11 -17 -25 -23 -54 -23 -35 0 -39 -3 -39 -25 0 -21 -5 -25 -29 -25 -20 0 -30
6 -34 20 -3 12 -14 20 -26 20 -23 0 -27 -10 -10 -27 14 -14 4 -33 -17 -33 -25
0 -114 51 -114 66 0 21 -17 17 -23 -6 -6 -23 -22 -24 -177 -8 -70 8 -106 17
-138 35 -37 21 -48 23 -74 14 -47 -17 -140 -14 -166 5 -18 12 -36 15 -76 10
-43 -6 -56 -4 -77 13 -16 12 -34 17 -51 14 -15 -3 -49 3 -77 12 -31 10 -63 14
-81 10 -27 -6 -30 -4 -30 19 0 28 -9 33 -27 15 -8 -8 -30 -8 -78 0 -72 11
-115 38 -115 73 0 10 -6 18 -14 18 -7 0 -19 6 -25 14 -17 21 3 54 37 62 15 4
32 11 39 16 7 6 20 5 33 -2 22 -12 116 -9 157 5 18 6 24 3 32 -18 12 -30 39
-36 117 -25 32 5 73 9 89 9 17 0 37 4 45 9 12 7 11 13 -10 35 -21 23 -30 25
-65 19 -22 -4 -56 -12 -76 -19 -44 -16 -61 -7 -57 29 2 20 -4 31 -23 43 -25
15 -28 15 -58 -6 -18 -13 -87 -36 -164 -55 l-132 -33 1 -102 c1 -56 7 -121 13
-144 7 -23 19 -67 28 -97 17 -61 26 -86 70 -180 17 -36 34 -72 37 -80 3 -8 15
-28 26 -45 11 -16 24 -39 30 -50 6 -11 19 -33 30 -50 11 -16 23 -37 27 -45 8
-19 65 -92 78 -103 6 -4 19 -4 30 0 11 4 153 10 315 14 351 9 674 25 785 39
44 5 163 12 265 16 114 4 201 12 228 20 23 8 75 14 115 15 40 0 81 4 92 8 16
7 14 9 -14 14 -44 9 -241 7 -366 -3 -55 -5 -192 -13 -305 -19 -113 -5 -254
-15 -315 -20 -60 -6 -189 -16 -285 -22 -96 -6 -201 -13 -233 -16 -67 -6 -72 4
-31 64 25 37 174 336 174 349 0 21 46 94 59 94 9 0 34 -12 56 -27 29 -20 54
-28 90 -29 59 -2 320 -40 334 -49 17 -10 164 -36 286 -49 149 -16 263 -53 361
-114 42 -26 108 -66 147 -89 40 -23 72 -47 72 -55 0 -24 22 -27 111 -17 49 6
148 14 219 19 72 5 198 14 280 19 83 6 173 15 200 20 28 6 86 15 130 20 44 6
123 17 175 26 52 9 138 19 190 24 52 4 118 13 145 20 28 7 77 20 110 28 124
31 252 77 354 125 214 102 357 173 393 195 21 13 43 23 50 23 14 1 89 36 124
59 21 14 20 15 -27 62 -27 27 -49 55 -49 63 0 16 -68 62 -77 52 -3 -3 13 -26
36 -51 25 -28 41 -54 41 -70 0 -36 -21 -31 -60 15 -18 22 -39 40 -46 40 -6 0
-14 7 -18 15 -3 8 -12 15 -21 15 -8 0 -15 7 -15 16 0 11 -8 14 -32 12 -32 -3
-33 -2 -34 34 -1 26 -11 48 -33 75 -17 21 -36 44 -42 51 -6 7 -8 16 -4 20 4 4
10 1 12 -5 3 -7 16 -13 29 -13 13 0 24 -4 24 -9 0 -15 103 -111 119 -111 13 1
11 5 -6 19 -13 11 -23 27 -23 35 0 9 -20 29 -44 44 -25 15 -47 37 -50 49 -3
12 -15 24 -26 28 -11 3 -27 19 -36 34 -9 15 -29 32 -45 38 -33 13 -38 39 -12
58 16 12 11 19 -44 71 -33 33 -63 67 -66 77 -4 9 -17 21 -29 26 -36 14 -84 53
-197 159 -57 53 -110 101 -119 106 -9 5 -47 40 -84 78 -71 72 -111 96 -133 78
-10 -8 -26 -2 -61 22 -39 26 -157 88 -168 88 -1 0 -12 -13 -24 -30z m548 -834
c0 -32 -12 -39 -36 -21 -19 15 -19 15 0 30 28 21 36 19 36 -9z m508 -276 c18
-16 38 -33 45 -37 7 -4 27 -26 45 -48 37 -46 31 -55 -40 -55 l-48 0 0 39 c0
32 -6 43 -35 65 -38 29 -47 66 -17 66 10 0 32 -13 50 -30z m-4104 -119 c5 -8
78 -24 121 -26 11 0 43 -11 70 -24 28 -13 70 -26 95 -29 25 -2 54 -11 65 -18
11 -8 34 -14 51 -14 18 0 39 -3 48 -6 20 -8 21 -53 1 -60 -17 -7 -49 -59 -59
-97 -3 -15 -16 -37 -27 -48 -12 -12 -26 -42 -33 -68 -8 -35 -16 -47 -33 -49
-12 -2 -27 -10 -34 -19 -11 -12 -10 -17 4 -24 23 -13 22 -36 -3 -49 -15 -8
-18 -17 -13 -42 4 -22 3 -29 -5 -24 -7 4 -12 16 -12 27 0 16 -5 18 -25 13 -39
-10 -68 3 -94 41 -13 19 -29 35 -36 35 -22 0 -35 26 -39 77 -4 63 -16 81 -77
118 -45 27 -49 33 -44 59 4 21 -2 36 -20 58 -27 32 -32 54 -14 60 8 3 6 19 -4
55 -9 28 -13 54 -10 57 10 10 121 7 127 -3z m4070 -48 c4 -11 -2 -26 -18 -42
-21 -20 -27 -22 -40 -11 -9 7 -16 25 -16 41 0 26 3 29 34 29 23 0 36 -6 40
-17z"/>
<path d="M765 3400 c-4 -6 -1 -17 5 -26 14 -16 40 -2 40 22 0 16 -36 19 -45 4z"/>
<path d="M8720 3396 c0 -9 7 -16 16 -16 9 0 14 5 12 12 -6 18 -28 21 -28 4z"/>
<path d="M840 3355 c0 -19 47 -38 69 -29 13 5 11 8 -9 16 -14 6 -33 14 -42 19
-13 7 -18 5 -18 -6z"/>
<path d="M995 3358 c-46 -16 -56 -27 -44 -49 7 -14 21 -19 52 -19 23 0 49 5
57 10 8 5 10 10 3 10 -6 0 -16 14 -22 30 -5 17 -11 30 -13 29 -2 0 -16 -5 -33
-11z"/>
<path d="M1103 3363 c-7 -2 -13 -13 -13 -24 0 -22 15 -24 49 -5 24 13 24 14 3
25 -11 6 -22 11 -24 10 -2 0 -9 -3 -15 -6z"/>
<path d="M8750 3350 c0 -21 33 -60 50 -60 6 0 10 7 10 15 0 8 -7 15 -15 15 -9
0 -15 9 -15 25 0 16 -6 25 -15 25 -8 0 -15 -9 -15 -20z"/>
<path d="M4780 3325 c0 -8 11 -17 25 -21 31 -8 38 -3 29 20 -8 20 -54 22 -54
1z"/>
<path d="M443 3314 c-7 -19 2 -28 22 -21 19 8 19 23 0 31 -9 3 -18 -1 -22 -10z"/>
<path d="M4733 3283 c-18 -7 -16 -23 2 -23 8 0 15 7 15 15 0 8 -1 15 -2 14 -2
0 -9 -3 -15 -6z"/>
<path d="M5042 3251 c2 -7 7 -12 11 -12 12 1 9 15 -3 20 -7 2 -11 -2 -8 -8z"/>
<path d="M8810 3236 c0 -13 7 -26 15 -30 8 -3 15 -17 15 -31 0 -14 5 -25 10
-25 17 0 24 31 12 49 -7 9 -16 26 -22 39 -13 29 -30 28 -30 -2z"/>
<path d="M3951 3232 c-44 -17 -72 -45 -58 -58 4 -4 36 -6 71 -5 73 2 118 -16
175 -70 45 -43 91 -117 91 -146 0 -28 16 -29 55 -3 17 11 33 20 38 20 11 0 8
-35 -5 -48 -6 -6 -8 -15 -4 -19 4 -5 13 0 20 10 7 9 18 17 24 17 6 0 18 10 26
22 14 20 10 26 -107 143 -108 108 -129 125 -177 139 -67 20 -93 19 -149 -2z"/>
<path d="M620 3216 c0 -9 7 -16 16 -16 9 0 14 5 12 12 -6 18 -28 21 -28 4z"/>
<path d="M680 3187 c0 -7 14 -24 30 -39 30 -26 33 -36 34 -133 1 -36 4 -40 29
-43 23 -3 27 0 27 20 0 13 -7 33 -15 44 -8 10 -15 36 -15 57 0 26 -9 49 -27
73 -28 34 -63 46 -63 21z"/>
<path d="M866 3192 c-7 -12 72 -88 81 -78 5 4 1 13 -9 20 -9 6 -18 23 -20 36
-3 25 -40 41 -52 22z"/>
<path d="M5106 3178 c-9 -12 -16 -26 -16 -30 0 -14 28 -8 34 7 3 8 17 15 32
15 33 0 27 24 -8 28 -18 2 -31 -4 -42 -20z"/>
<path d="M437 3143 c-12 -11 -8 -21 14 -42 17 -15 19 -23 10 -39 -19 -35 -12
-44 16 -22 34 26 41 85 12 101 -21 11 -43 12 -52 2z"/>
<path d="M8872 3131 c4 -13 18 -16 19 -4 0 4 -5 9 -11 12 -7 2 -11 -2 -8 -8z"/>
<path d="M2923 3103 c-22 -8 -14 -23 13 -23 15 0 24 5 22 12 -5 14 -18 18 -35
11z"/>
<path d="M5217 3104 c-9 -10 12 -34 30 -34 19 0 12 34 -8 38 -8 1 -18 0 -22
-4z"/>
<path d="M626 3072 c-3 -6 -1 -14 5 -17 15 -10 25 3 12 16 -7 7 -13 7 -17 1z"/>
<path d="M875 3070 c-8 -13 15 -24 27 -12 6 6 4 11 -6 15 -8 3 -18 2 -21 -3z"/>
<path d="M3470 3060 c0 -13 5 -20 13 -17 6 2 12 10 12 17 0 7 -6 15 -12 18 -8
2 -13 -5 -13 -18z"/>
<path d="M8846 3073 c-6 -6 -482 -17 -621 -15 -220 4 -668 1 -701 -4 -48 -7
-70 -24 -31 -24 14 0 40 -6 59 -14 42 -18 205 -35 313 -34 258 4 947 -5 981
-13 21 -4 51 -11 67 -15 20 -5 27 -3 27 9 0 8 -6 20 -14 26 -7 6 -11 21 -9 34
3 16 -3 26 -25 40 -34 19 -36 20 -46 10z"/>
<path d="M5333 3054 c-3 -10 -15 -31 -26 -46 -23 -32 -16 -48 22 -48 25 0 30
-5 35 -35 6 -31 9 -34 26 -22 29 17 26 55 -4 63 -14 3 -32 14 -42 25 -15 17
-16 23 -4 44 7 14 10 28 7 31 -4 4 -10 -2 -14 -12z"/>
<path d="M5973 3060 c-32 -13 -29 -22 14 -45 34 -19 57 -20 342 -20 168 0 392
2 498 4 152 4 195 2 208 -9 13 -11 23 -11 50 -1 18 6 45 9 59 5 16 -4 33 0 48
10 28 20 52 20 67 2 6 -7 33 -16 61 -19 27 -3 63 -13 80 -22 27 -14 31 -20 25
-43 -3 -15 -21 -42 -38 -59 l-32 -33 -37 17 c-33 15 -37 21 -40 57 -3 45 -23
59 -32 23 -7 -28 -43 -42 -64 -25 -7 6 -28 13 -46 15 l-33 3 1 -45 c0 -25 5
-45 11 -46 11 -1 24 32 18 47 -7 19 14 25 27 9 7 -8 22 -15 34 -15 40 0 50
-15 22 -33 -14 -10 -29 -17 -35 -17 -12 0 -22 -27 -15 -45 5 -12 14 -11 57 7
29 12 78 23 109 24 51 3 63 0 102 -27 60 -43 76 -29 25 22 -50 50 -49 77 3
101 33 16 39 16 70 1 44 -21 128 -103 128 -125 0 -10 6 -18 14 -18 24 0 43
-42 50 -112 7 -74 -3 -91 -36 -62 -15 15 -19 27 -15 56 6 43 -3 53 -39 44 -29
-8 -31 -29 -4 -56 11 -11 20 -30 20 -42 0 -13 4 -29 9 -36 5 -8 1 -27 -10 -48
-26 -51 -38 -63 -87 -85 -25 -12 -56 -34 -69 -50 -17 -20 -34 -29 -53 -29 -16
0 -32 -4 -35 -10 -8 -13 -92 -13 -100 0 -4 6 -25 20 -47 31 l-40 21 16 -23
c28 -41 20 -58 -39 -85 -107 -49 -168 -45 -184 12 -14 51 -4 88 36 129 33 34
35 35 116 35 45 1 122 7 172 14 83 13 92 17 120 49 34 40 55 99 55 156 0 65
-21 63 -59 -5 -30 -54 -97 -110 -147 -122 -21 -5 -84 -15 -139 -22 -100 -13
-101 -13 -153 14 -30 15 -58 37 -64 51 -9 19 -16 23 -35 19 -17 -5 -31 0 -48
16 -23 22 -26 22 -43 7 -25 -22 -24 -22 -83 19 -55 38 -79 35 -79 -12 0 -14
-6 -24 -14 -24 -19 0 -48 -29 -43 -43 2 -6 32 -22 68 -37 58 -23 64 -28 64
-55 1 -17 14 -51 29 -78 16 -27 25 -54 22 -63 -4 -9 -1 -32 6 -50 10 -29 9
-36 -6 -53 -18 -20 -18 -21 9 -31 26 -10 27 -13 21 -58 -3 -26 -9 -62 -12 -80
-5 -25 -2 -36 11 -46 17 -12 17 -15 -5 -60 -25 -53 -43 -67 -114 -91 -71 -24
-173 -7 -223 37 -10 9 -28 19 -41 23 -35 10 -20 30 26 33 47 4 49 7 25 54 -9
18 -23 47 -31 63 -22 45 -83 105 -107 105 -24 0 -63 -78 -42 -84 7 -2 37 -9
67 -15 83 -17 91 -25 56 -57 -27 -26 -29 -26 -56 -10 -16 9 -35 16 -45 16 -9
0 -24 13 -33 30 -22 39 -42 37 -70 -7 -23 -37 -23 -51 4 -150 2 -7 13 -14 26
-17 13 -2 52 -9 88 -16 40 -7 75 -21 93 -36 16 -13 34 -24 40 -24 15 -1 186
-24 290 -40 92 -14 113 -10 97 21 -19 35 -4 81 35 108 34 23 40 24 148 17 62
-3 161 -14 220 -23 101 -15 114 -15 186 0 42 10 98 17 125 17 37 0 64 8 103
30 68 38 89 34 98 -21 11 -66 -17 -81 -185 -101 -57 -7 -89 -15 -98 -26 -10
-13 -34 -17 -113 -18 -98 -2 -134 -13 -113 -33 5 -5 52 -12 104 -15 52 -3 124
-8 160 -12 92 -9 188 25 289 101 64 48 71 52 71 32 0 -7 9 -18 20 -25 11 -7
20 -21 20 -31 0 -26 -46 -61 -81 -61 -15 0 -31 -4 -34 -10 -4 -6 8 -10 28 -10
19 0 62 -3 96 -6 l61 -7 0 69 c0 69 -1 70 -42 111 -24 22 -52 45 -62 51 -20
10 -46 78 -46 120 0 13 15 41 33 64 32 40 32 41 30 147 -2 117 -9 142 -77 246
-32 48 -40 73 -46 125 -3 39 -17 88 -33 121 -27 56 -100 149 -118 149 -4 0
-40 20 -78 45 -38 25 -81 45 -94 45 -36 0 -57 10 -57 26 0 9 -11 14 -29 14
-16 0 -34 7 -42 16 -11 13 -34 15 -128 14 -64 -1 -363 1 -666 4 -343 4 -558 2
-572 -4z m1067 -593 c0 -24 -79 -74 -94 -60 -11 12 -6 41 10 57 19 20 84 22
84 3z m783 -48 c21 -38 21 -53 1 -84 -15 -23 -14 -24 15 -40 34 -17 40 -45 16
-65 -8 -7 -15 -23 -15 -36 0 -16 -9 -28 -28 -38 -16 -8 -35 -22 -42 -31 -12
-15 -12 -19 3 -30 9 -7 17 -15 17 -18 0 -3 -37 -27 -82 -52 l-82 -46 -121 1
c-178 2 -222 2 -256 -1 -21 -1 -36 4 -44 14 -15 21 -31 22 -39 2 -4 -12 -25
-15 -95 -15 -106 0 -117 3 -136 41 -29 55 -13 114 45 163 37 31 48 32 88 9 27
-16 36 -16 89 -4 32 8 92 17 133 21 41 4 96 14 122 22 42 14 154 86 234 152
38 31 111 65 139 66 12 0 27 -12 38 -31z m-893 -61 c-1 -24 -47 -85 -57 -75
-7 8 36 97 48 97 5 0 9 -10 9 -22z"/>
<path d="M7680 2221 c-5 -11 -10 -31 -10 -44 0 -14 -7 -27 -15 -31 -19 -7 -20
-56 -1 -56 21 0 45 39 53 83 3 20 10 40 14 43 16 9 9 24 -11 24 -10 0 -24 -9
-30 -19z"/>
<path d="M7027 2143 c-14 -13 -6 -23 18 -23 13 0 42 -9 64 -21 37 -19 61 -19
61 0 0 4 -20 17 -45 29 -45 22 -86 28 -98 15z"/>
<path d="M2845 3041 c-7 -12 12 -24 25 -16 11 7 4 25 -10 25 -5 0 -11 -4 -15
-9z"/>
<path d="M3231 3037 c-6 -8 -7 -17 -3 -21 4 -4 -1 -14 -11 -21 -24 -17 -20
-78 5 -83 13 -2 17 5 20 35 3 36 5 38 41 41 48 4 49 28 2 48 -42 17 -40 17
-54 1z"/>
<path d="M4855 3039 c-10 -15 3 -25 16 -12 7 7 7 13 1 17 -6 3 -14 1 -17 -5z"/>
<path d="M540 3021 c0 -12 5 -21 10 -21 6 0 10 6 10 14 0 8 -4 18 -10 21 -5 3
-10 -3 -10 -14z"/>
<path d="M5605 3010 c-8 -13 4 -32 16 -25 12 8 12 35 0 35 -6 0 -13 -4 -16
-10z"/>
<path d="M1058 3003 c-41 -11 -31 -73 11 -73 32 0 52 -17 44 -37 -5 -13 -2
-13 15 -4 33 18 56 71 31 71 -6 0 -25 11 -43 25 -18 14 -35 24 -37 24 -2 -1
-12 -3 -21 -6z"/>
<path d="M1180 2980 c0 -23 4 -30 20 -30 22 0 23 3 14 38 -9 33 -34 28 -34 -8z"/>
<path d="M5092 2981 c2 -7 7 -12 11 -12 12 1 9 15 -3 20 -7 2 -11 -2 -8 -8z"/>
<path d="M380 2945 c0 -15 7 -28 18 -32 26 -9 93 -86 90 -103 -2 -8 -18 -21
-36 -29 -32 -15 -45 -52 -22 -66 6 -3 10 -14 10 -24 0 -11 9 -21 22 -24 30 -8
35 -1 14 22 -21 23 -14 41 18 41 12 0 27 5 34 12 15 15 16 48 2 48 -5 0 -10
10 -10 21 0 12 -11 32 -25 45 -14 13 -25 30 -25 39 0 8 -11 21 -25 27 -13 6
-27 19 -30 30 -9 27 -35 22 -35 -7z"/>
<path d="M2690 2950 c0 -5 7 -10 15 -10 8 0 15 5 15 10 0 6 -7 10 -15 10 -8 0
-15 -4 -15 -10z"/>
<path d="M6900 2953 c-34 -6 -47 -20 -32 -35 8 -8 15 -8 24 -1 7 6 28 14 46
18 17 3 32 11 32 16 0 9 -25 10 -70 2z"/>
<path d="M2592 2938 c-18 -18 -15 -38 6 -38 27 0 46 16 39 34 -8 19 -28 21
-45 4z"/>
<path d="M211 2926 c-9 -11 -4 -18 29 -35 l40 -21 0 25 c0 18 -8 28 -26 35
-32 12 -29 13 -43 -4z"/>
<path d="M835 2930 c-3 -5 9 -26 28 -47 44 -51 61 -91 46 -109 -6 -8 -17 -14
-25 -14 -7 0 -15 -4 -19 -9 -8 -14 76 -133 97 -139 13 -3 18 -15 18 -44 0 -46
25 -88 52 -88 15 0 19 6 16 27 -3 23 2 29 30 37 22 6 32 15 32 29 0 17 -5 19
-40 13 -36 -6 -40 -4 -40 14 0 15 -7 20 -24 20 -22 0 -25 5 -28 43 -3 37 -6
42 -26 41 -21 -1 -23 3 -17 25 11 48 17 130 11 156 -4 17 -13 25 -29 25 -12 0
-34 7 -49 14 -15 8 -30 11 -33 6z"/>
<path d="M1219 2913 c-7 -20 -7 -28 3 -34 12 -8 24 14 27 49 2 22 -19 12 -30
-15z"/>
<path d="M1547 2933 c-18 -17 -2 -40 43 -65 28 -16 55 -28 61 -28 17 0 38 31
38 55 0 20 0 20 -11 0 -16 -29 -16 -29 -33 -11 -9 9 -27 16 -40 16 -15 0 -26
7 -30 20 -6 20 -16 25 -28 13z"/>
<path d="M8930 2920 c0 -13 5 -20 13 -17 6 2 12 10 12 17 0 7 -6 15 -12 18 -8
2 -13 -5 -13 -18z"/>
<path d="M3930 2922 c0 -4 4 -12 9 -17 5 -6 11 -21 13 -34 5 -37 28 -39 28 -3
0 21 -8 35 -25 46 -14 9 -25 13 -25 8z"/>
<path d="M4382 2884 c-27 -37 -37 -45 -60 -42 -21 2 -27 8 -27 28 0 32 -39 36
-43 5 -3 -24 65 -98 112 -120 17 -8 46 -28 62 -43 97 -86 117 -102 130 -102
12 0 12 4 4 21 -15 28 -5 35 25 19 30 -16 34 -50 5 -50 -36 0 -22 -40 38 -109
32 -36 66 -79 76 -94 17 -28 17 -29 -3 -34 -12 -3 -21 -7 -21 -9 0 -13 55 -53
77 -56 21 -2 28 -8 26 -23 -1 -11 4 -23 10 -27 20 -13 82 -9 102 6 18 13 17
14 -11 32 -30 18 -133 121 -216 215 -50 57 -67 110 -29 89 11 -5 23 -15 26
-20 4 -6 22 -17 41 -25 19 -8 37 -21 40 -30 4 -9 18 -15 35 -15 61 0 38 37
-136 213 -91 92 -172 179 -181 192 -24 36 -46 31 -82 -21z m86 -122 c2 -7 -3
-12 -12 -12 -9 0 -16 7 -16 16 0 17 22 14 28 -4z m70 -54 c15 -15 16 -38 1
-38 -6 0 -17 6 -25 14 -8 8 -14 19 -14 25 0 15 23 14 38 -1z"/>
<path d="M5749 2919 c-7 -4 -9 -14 -6 -24 9 -22 71 -17 75 6 3 18 -48 31 -69
18z"/>
<path d="M6594 2899 c-79 -50 -103 -81 -139 -178 -10 -28 -13 -47 -6 -54 14
-14 30 1 52 47 10 22 23 48 28 56 5 8 17 32 27 53 18 35 56 62 117 81 9 3 17
10 17 16 0 20 -47 10 -96 -21z"/>
<path d="M2445 2910 c3 -5 19 -10 36 -10 16 0 29 5 29 10 0 6 -16 10 -36 10
-21 0 -33 -4 -29 -10z"/>
<path d="M2540 2860 c0 -5 7 -10 15 -10 8 0 15 5 15 10 0 6 -7 10 -15 10 -8 0
-15 -4 -15 -10z"/>
<path d="M5456 2863 c-11 -11 -6 -23 9 -23 8 0 15 4 15 9 0 13 -16 22 -24 14z"/>
<path d="M8962 2848 c5 -34 38 -37 38 -4 0 20 -5 26 -21 26 -15 0 -20 -5 -17
-22z"/>
<path d="M284 2845 c-13 -34 28 -49 46 -16 14 28 13 31 -15 31 -14 0 -28 -7
-31 -15z"/>
<path d="M632 2848 c-14 -14 -16 -48 -3 -48 11 0 41 39 41 52 0 12 -25 9 -38
-4z"/>
<path d="M2185 2847 c-4 -10 -5 -21 -1 -24 10 -10 18 4 13 24 -4 17 -4 17 -12
0z"/>
<path d="M2334 2844 c3 -9 6 -21 6 -27 0 -8 3 -8 11 0 13 13 5 43 -12 43 -6 0
-8 -7 -5 -16z"/>
<path d="M3040 2845 c-14 -17 -5 -36 15 -28 16 6 21 43 6 43 -5 0 -14 -7 -21
-15z"/>
<path d="M5523 2828 c2 -7 10 -13 17 -13 7 0 15 6 18 13 2 7 -5 12 -18 12 -13
0 -20 -5 -17 -12z"/>
<path d="M1677 2817 c-3 -8 -1 -20 4 -28 6 -10 9 -7 9 14 0 29 -5 35 -13 14z"/>
<path d="M1760 2810 c-9 -16 -8 -22 5 -26 21 -9 37 8 29 29 -8 23 -21 21 -34
-3z"/>
<path d="M334 2789 c-14 -15 -26 -19 -47 -15 -25 5 -30 2 -43 -30 -17 -42 -13
-64 13 -64 21 0 83 53 83 70 0 6 14 16 30 21 17 6 30 17 30 25 0 21 -44 17
-66 -7z"/>
<path d="M2025 2800 c-8 -14 3 -30 21 -30 8 0 14 9 14 20 0 21 -24 28 -35 10z"/>
<path d="M7552 2798 c3 -7 13 -15 22 -16 12 -3 17 1 14 10 -3 7 -13 15 -22 16
-12 3 -17 -1 -14 -10z"/>
<path d="M1177 2786 c-24 -18 -28 -69 -6 -74 11 -2 19 6 23 25 4 15 9 36 12
46 6 20 -4 21 -29 3z"/>
<path d="M2414 2789 c-8 -14 11 -33 25 -25 6 4 11 14 11 22 0 16 -26 19 -36 3z"/>
<path d="M1045 2760 c-7 -12 2 -30 16 -30 12 0 12 27 0 35 -5 3 -12 1 -16 -5z"/>
<path d="M2910 2755 c0 -9 5 -15 11 -13 6 2 11 8 11 13 0 5 -5 11 -11 13 -6 2
-11 -4 -11 -13z"/>
<path d="M1484 2735 c-3 -8 -3 -19 1 -25 11 -18 25 -11 25 15 0 27 -17 34 -26
10z"/>
<path d="M3324 2735 c-8 -21 1 -42 25 -55 18 -9 21 -8 21 12 -1 23 -21 58 -34
58 -4 0 -9 -7 -12 -15z"/>
<path d="M1330 2715 c0 -8 7 -15 15 -15 8 0 15 4 15 9 0 5 -7 11 -15 15 -9 3
-15 0 -15 -9z"/>
<path d="M700 2704 c-62 -22 -67 -30 -39 -53 31 -26 65 -26 79 -1 6 11 18 20
26 20 20 0 15 44 -6 47 -8 1 -35 -5 -60 -13z"/>
<path d="M7010 2712 c0 -11 22 -32 32 -32 5 0 4 9 -2 20 -11 20 -30 28 -30 12z"/>
<path d="M1608 2698 c9 -9 15 -9 24 0 9 9 7 12 -12 12 -19 0 -21 -3 -12 -12z"/>
<path d="M2010 2697 c0 -8 9 -25 19 -38 17 -21 20 -22 26 -7 4 9 5 25 3 35 -4
22 -48 31 -48 10z"/>
<path d="M2840 2690 c-6 -10 -25 -22 -44 -25 -39 -8 -81 -57 -71 -83 5 -15 9
-14 24 7 15 19 23 22 49 17 25 -6 33 -3 42 13 13 25 45 27 58 5 10 -19 32 -11
32 12 0 9 -10 14 -29 14 -30 0 -45 19 -35 45 9 22 -14 18 -26 -5z"/>
<path d="M5767 2685 c-15 -14 -34 -25 -41 -25 -7 0 -21 -9 -31 -20 -27 -30
-112 -22 -140 14 -11 14 -30 26 -42 26 -19 0 -21 -4 -16 -35 7 -44 -13 -54
-64 -30 -29 14 -43 16 -65 7 -15 -5 -37 -8 -48 -5 -24 6 -25 0 -4 -32 15 -24
15 -26 -15 -56 -24 -24 -31 -39 -31 -69 0 -21 -4 -42 -10 -45 -15 -9 -48 13
-56 37 -8 26 -55 88 -66 88 -5 0 -8 -9 -8 -20 0 -11 4 -20 9 -20 4 0 11 -18
14 -40 3 -22 14 -58 25 -80 17 -36 18 -40 3 -40 -9 0 -26 6 -37 14 -11 8 -30
16 -43 18 -13 1 -29 11 -35 21 -9 15 -7 22 12 34 36 25 28 43 -20 43 -24 0
-49 7 -59 16 -24 21 -128 26 -151 6 -25 -21 -22 -39 7 -46 24 -6 51 -27 119
-92 62 -60 77 -65 213 -75 70 -5 136 -6 146 -3 9 3 24 -2 33 -10 8 -9 24 -16
33 -16 10 0 30 -10 45 -21 l27 -21 20 21 c26 28 63 27 93 -4 30 -30 69 -32 96
-5 23 23 26 58 7 84 -13 17 -14 17 -30 -8 -23 -34 -62 -34 -99 1 l-28 27 -28
-27 c-35 -33 -52 -34 -52 -3 0 29 -27 96 -39 96 -5 0 -28 -9 -52 -20 -64 -29
-76 -27 -71 11 3 18 13 40 23 50 22 22 24 40 7 57 -8 8 -4 14 16 23 18 9 26
19 23 30 -8 29 6 38 63 39 64 1 223 -22 262 -38 25 -10 27 -9 33 19 4 17 20
46 37 65 28 31 33 33 71 27 42 -6 44 -1 9 40 -20 23 -31 21 -65 -8z m-381
-387 c-10 -6 -20 -7 -24 -3 -9 8 20 25 31 18 5 -3 2 -10 -7 -15z"/>
<path d="M1830 2690 c0 -7 -18 -34 -40 -60 -50 -60 -52 -80 -6 -80 25 0 35 -5
39 -20 7 -26 24 -26 32 -1 3 11 15 23 26 26 27 9 27 70 -1 85 -11 6 -20 17
-20 24 0 8 -7 19 -15 26 -12 10 -15 10 -15 0z"/>
<path d="M1104 2675 c-9 -23 3 -45 24 -45 18 0 67 -23 127 -59 17 -9 31 -27
33 -39 3 -16 10 -22 30 -22 15 0 33 4 41 9 21 13 5 41 -23 41 -14 0 -29 6 -33
14 -4 7 -18 18 -31 25 -13 7 -25 25 -29 42 -6 33 -11 35 -39 14 -28 -21 -44
-18 -44 10 0 20 -5 25 -25 25 -14 0 -28 -7 -31 -15z"/>
<path d="M4340 2670 c0 -5 4 -10 8 -10 4 0 16 -13 25 -30 10 -16 25 -30 33
-30 22 0 17 15 -18 49 -33 32 -48 39 -48 21z"/>
<path d="M1709 2643 c-6 -16 -15 -35 -20 -43 -20 -33 -22 -43 -10 -61 6 -11 7
-19 1 -19 -5 0 -17 -11 -26 -25 -15 -24 -15 -27 0 -44 9 -9 16 -21 16 -26 0
-18 73 -75 96 -75 37 0 27 31 -17 54 -35 19 -37 22 -42 90 -4 41 -2 75 3 80 6
6 10 20 10 33 0 12 7 26 16 31 9 5 14 14 10 21 -12 19 -26 12 -37 -16z"/>
<path d="M200 2619 c0 -20 9 -22 49 -10 23 6 22 7 -12 18 -34 10 -37 9 -37 -8z"/>
<path d="M1522 2613 c2 -11 14 -19 31 -21 23 -3 28 0 25 15 -2 11 -14 19 -31
21 -23 3 -28 0 -25 -15z"/>
<path d="M50 2607 c0 -21 35 -48 54 -41 19 7 19 9 6 35 -12 22 -60 26 -60 6z"/>
<path d="M2055 2598 c-33 -10 -65 -56 -65 -93 0 -28 25 -56 44 -49 18 7 71
133 60 143 -5 4 -23 4 -39 -1z"/>
<path d="M390 2574 c0 -22 3 -24 23 -18 81 25 91 44 22 44 -42 0 -45 -2 -45
-26z"/>
<path d="M892 2588 c-14 -14 -16 -38 -4 -38 12 0 32 23 32 37 0 16 -12 17 -28
1z"/>
<path d="M3229 2583 c-43 -12 -89 -47 -77 -58 11 -12 95 -21 122 -14 17 5 35
4 40 0 6 -5 29 -11 51 -13 33 -2 40 0 43 16 3 11 -2 24 -10 30 -9 6 -18 21
-22 34 -6 16 -11 20 -23 13 -9 -4 -30 -5 -47 -2 -17 4 -51 1 -77 -6z"/>
<path d="M741 2572 c-7 -13 -6 -23 1 -30 19 -19 28 -14 28 18 0 34 -14 39 -29
12z"/>
<path d="M2354 2559 c-4 -7 -22 -9 -48 -5 -47 7 -72 -4 -63 -29 5 -11 11 -14
23 -7 9 5 38 7 65 4 47 -4 49 -4 49 22 0 27 -13 35 -26 15z"/>
<path d="M1401 2542 c-15 -29 0 -42 42 -35 42 6 45 13 19 36 -24 22 -49 21
-61 -1z"/>
<path d="M1140 2529 c0 -31 19 -59 40 -59 32 0 34 20 4 51 -33 34 -44 36 -44
8z"/>
<path d="M1515 2517 c-12 -26 -14 -41 -7 -50 6 -6 12 -25 14 -41 1 -16 9 -32
17 -34 11 -4 13 4 8 36 -3 29 -1 45 9 53 18 15 18 22 -5 50 l-18 23 -18 -37z"/>
<path d="M5779 2511 c-24 -25 -29 -38 -29 -79 0 -35 5 -54 18 -65 27 -25 38
-21 67 20 29 44 34 112 9 137 -22 22 -31 20 -65 -13z"/>
<path d="M30 2506 c0 -8 4 -17 8 -20 13 -8 35 11 28 23 -10 16 -36 14 -36 -3z"/>
<path d="M870 2487 c0 -29 34 -62 55 -54 21 9 19 40 -3 60 -27 25 -52 22 -52
-6z"/>
<path d="M1582 2469 c1 -13 8 -23 13 -21 15 3 12 35 -3 40 -9 3 -13 -3 -10
-19z"/>
<path d="M2685 2460 c-18 -20 -18 -21 8 -48 31 -31 45 -23 49 28 2 29 -1 36
-18 38 -11 2 -29 -6 -39 -18z"/>
<path d="M2850 2460 c-7 -13 -21 -20 -40 -20 -24 0 -31 -5 -36 -26 -4 -16 -2
-30 7 -39 16 -14 80 -37 87 -31 2 3 -2 20 -9 40 -7 20 -9 39 -5 43 8 8 40 -25
49 -50 3 -8 12 -5 28 10 l23 22 -37 36 c-41 40 -52 43 -67 15z"/>
<path d="M3195 2462 c-55 -19 -59 -28 -23 -55 23 -17 25 -17 66 1 39 18 71 46
72 65 0 13 -63 7 -115 -11z"/>
<path d="M3733 2420 c1 -52 13 -64 37 -35 10 12 10 19 2 27 -7 7 -12 22 -12
35 0 13 -6 23 -14 23 -10 0 -13 -14 -13 -50z"/>
<path d="M2169 2435 c-13 -13 -32 -25 -42 -25 -15 0 -37 -35 -37 -60 0 -5 11
-12 25 -16 14 -3 25 -10 25 -15 0 -5 7 -9 15 -9 8 0 15 8 15 18 0 19 50 62 71
62 7 0 21 -7 30 -16 17 -15 20 -15 43 0 14 9 44 16 66 16 23 0 50 4 60 10 27
15 79 -16 96 -56 17 -41 22 -42 34 -9 11 28 41 33 60 10 15 -18 60 -20 60 -2
0 6 -19 30 -42 52 -34 32 -51 40 -83 41 -22 1 -53 5 -69 9 -21 6 -32 4 -40 -7
-6 -8 -28 -17 -48 -21 -29 -4 -40 -2 -47 11 -8 14 -13 15 -28 4 -35 -24 -44
-24 -68 2 -30 33 -66 33 -96 1z"/>
<path d="M747 2413 c-4 -3 -7 -15 -7 -25 0 -22 25 -24 34 -3 3 9 18 15 36 15
18 0 29 4 25 10 -7 11 -78 14 -88 3z"/>
<path d="M660 2368 c0 -16 19 -38 33 -38 4 0 7 10 5 22 -3 25 -38 39 -38 16z"/>
<path d="M843 2357 c-8 -13 24 -37 50 -37 10 0 27 5 38 11 28 15 49 5 113 -51
63 -55 68 -57 86 -35 17 21 37 19 57 -5 25 -29 50 -25 56 8 4 19 -1 32 -14 45
-10 10 -19 25 -19 34 0 12 -8 14 -32 10 -18 -2 -40 -1 -49 4 -12 6 -24 1 -43
-16 -33 -30 -50 -32 -43 -5 9 36 -15 47 -107 47 -50 1 -89 -4 -93 -10z"/>
<path d="M1280 2355 c0 -8 5 -15 10 -15 6 0 10 7 10 15 0 8 -4 15 -10 15 -5 0
-10 -7 -10 -15z"/>
<path d="M2731 2349 c-1 -15 28 -49 42 -49 4 0 7 7 7 15 0 8 -9 15 -19 15 -11
0 -22 8 -24 18 -4 14 -5 14 -6 1z"/>
<path d="M5872 2348 c-7 -7 -12 -18 -12 -25 0 -7 -18 -20 -40 -29 -39 -16 -47
-41 -10 -29 11 3 33 -1 50 -10 18 -9 38 -14 46 -11 25 10 12 116 -14 116 -5 0
-13 -5 -20 -12z"/>
<path d="M2960 2325 c0 -8 7 -15 15 -15 8 0 15 7 15 15 0 8 -7 15 -15 15 -8 0
-15 -7 -15 -15z"/>
<path d="M765 2321 c-8 -14 37 -43 49 -31 6 6 4 15 -4 25 -14 17 -36 20 -45 6z"/>
<path d="M1400 2300 c0 -20 5 -30 15 -30 10 0 15 10 15 30 0 20 -5 30 -15 30
-10 0 -15 -10 -15 -30z"/>
<path d="M1922 2303 c-5 -16 -13 -36 -17 -45 -15 -37 21 -17 38 20 21 47 21
52 3 52 -8 0 -19 -12 -24 -27z"/>
<path d="M2425 2321 c-6 -11 9 -23 19 -14 9 9 7 23 -3 23 -6 0 -12 -4 -16 -9z"/>
<path d="M6248 2285 c-10 -22 -9 -29 9 -47 22 -22 49 -19 59 6 4 12 -38 66
-52 66 -2 0 -10 -11 -16 -25z"/>
<path d="M1583 2277 c-4 -7 -16 -16 -25 -20 -10 -3 -18 -13 -18 -21 0 -13 4
-13 30 2 16 9 32 22 34 29 7 18 -11 26 -21 10z"/>
<path d="M3213 2272 c-23 -11 -33 -23 -33 -39 0 -19 5 -23 29 -23 17 0 32 -4
35 -9 13 -21 -28 -34 -109 -36 -100 -2 -131 -18 -95 -47 12 -10 29 -18 37 -18
16 0 76 -38 81 -52 7 -15 32 -8 32 10 0 9 12 28 25 41 14 13 25 29 25 36 0 13
52 45 72 45 4 0 8 -13 8 -29 0 -22 6 -32 22 -37 13 -4 40 -20 60 -37 35 -28
40 -29 63 -17 14 7 25 19 25 25 0 20 -28 38 -50 32 -11 -3 -20 -2 -20 1 0 4
-14 15 -31 24 -19 11 -37 34 -47 59 -15 38 -17 40 -48 34 -30 -5 -34 -3 -41
23 -8 29 -8 29 -40 14z"/>
<path d="M6132 2247 c-11 -12 -22 -33 -24 -47 -3 -23 -7 -25 -45 -22 -48 4
-59 -13 -19 -28 13 -5 27 -14 31 -19 12 -21 31 -11 55 29 14 22 30 40 37 40
22 0 24 20 5 45 l-19 24 -21 -22z"/>
<path d="M6655 2230 c-8 -13 20 -24 42 -16 15 6 15 8 3 16 -20 13 -37 12 -45
0z"/>
<path d="M8967 2233 c-4 -3 -7 -19 -7 -35 0 -21 5 -28 20 -28 16 0 20 7 20 35
0 33 -16 46 -33 28z"/>
<path d="M1707 2223 c-9 -8 -9 -48 0 -56 10 -11 43 24 43 45 0 18 -29 26 -43
11z"/>
<path d="M5020 2220 c-36 -5 -85 -13 -110 -20 -25 -6 -63 -15 -86 -20 -40 -9
-93 -29 -146 -56 -14 -8 -33 -14 -42 -14 -36 0 -11 -44 29 -52 33 -6 24 -33
-10 -33 -25 0 -30 4 -33 28 -3 22 -8 27 -31 27 -16 0 -34 -7 -41 -15 -7 -8
-19 -15 -26 -15 -8 0 -31 -11 -52 -24 -42 -26 -126 -66 -140 -66 -5 0 -15 -7
-22 -15 -7 -8 -18 -15 -26 -15 -11 0 -42 -13 -169 -70 -11 -5 -54 -21 -95 -36
-69 -24 -105 -34 -245 -67 -27 -7 -55 -15 -61 -19 -16 -11 -186 -41 -379 -68
-44 -6 -93 -16 -110 -21 -16 -6 -82 -14 -145 -19 -63 -4 -126 -11 -140 -14
-25 -7 -164 -17 -460 -35 -91 -6 -246 -16 -345 -22 -221 -14 -373 -23 -665
-38 -124 -7 -254 -16 -290 -22 -36 -5 -153 -11 -260 -14 -107 -2 -222 -9 -255
-16 -36 -7 -100 -9 -157 -6 -83 5 -98 4 -98 -9 0 -13 187 -206 300 -309 110
-100 396 -303 548 -389 75 -42 262 -142 292 -156 8 -4 40 -19 70 -33 30 -14
89 -40 130 -58 41 -17 94 -40 117 -50 23 -11 46 -19 51 -19 4 0 26 -8 48 -19
53 -25 280 -101 302 -101 10 0 22 -4 28 -9 5 -5 45 -19 89 -31 44 -13 85 -27
92 -32 7 -6 22 -11 35 -13 40 -6 152 -36 175 -47 11 -6 26 -7 32 -4 11 7 66
-7 111 -29 14 -6 53 -13 88 -14 36 -1 73 -8 86 -16 14 -10 34 -13 53 -9 19 4
33 1 38 -5 5 -9 11 -9 22 1 19 16 112 38 130 31 23 -9 14 -22 -22 -29 -43 -8
-38 -19 13 -28 22 -3 52 -13 68 -21 34 -18 58 -19 82 -4 12 8 28 7 59 -4 24
-8 47 -11 55 -6 21 14 55 10 62 -6 7 -19 96 -21 114 -3 7 7 28 11 47 10 26 -2
35 1 35 13 0 11 -6 15 -19 10 -10 -3 -23 1 -31 10 -8 10 -18 12 -29 6 -9 -5
-39 -11 -68 -15 -40 -5 -54 -3 -60 8 -5 9 -38 20 -81 27 -59 10 -77 10 -98 -2
-32 -17 -59 -2 -59 32 0 22 -5 25 -55 30 -73 8 -98 17 -110 38 -8 15 -18 18
-53 14 -32 -4 -48 -1 -59 11 -21 21 -31 20 -53 -4 -11 -12 -31 -20 -52 -20
-30 0 -32 2 -21 20 16 26 6 33 -26 19 -21 -10 -38 -9 -89 5 -34 9 -69 15 -77
12 -8 -3 -37 -2 -65 2 -41 6 -50 11 -50 27 0 22 -28 25 -97 11 -31 -7 -38 -5
-48 14 -10 18 -9 24 1 31 21 12 8 18 -57 24 -63 7 -71 9 -149 44 -27 13 -74
27 -105 32 -30 6 -76 14 -103 18 -38 6 -55 17 -87 51 -37 41 -45 44 -100 48
-33 2 -62 8 -65 12 -3 4 4 19 15 33 11 14 20 27 20 30 0 14 -72 17 -91 3 -14
-10 -30 -12 -52 -6 -18 4 -45 11 -60 14 -35 8 -30 29 9 36 l29 6 -23 12 c-12
7 -28 9 -35 5 -20 -12 -60 -3 -89 22 -14 12 -46 25 -70 29 -49 7 -81 24 -60
33 6 2 12 9 12 14 0 10 -65 39 -89 39 -30 0 -92 21 -86 30 3 4 38 12 77 16
l73 8 -50 7 c-27 4 -78 8 -112 8 -83 1 -100 25 -31 41 l33 8 -30 2 c-80 4
-112 8 -137 18 -31 13 -39 37 -9 27 21 -6 51 3 51 16 0 5 -19 8 -42 8 -63 -3
-88 8 -88 37 0 14 -7 27 -15 30 -26 10 -37 41 -23 63 16 27 -5 51 -44 51 -25
0 -29 -3 -23 -17 10 -28 11 -31 0 -33 -7 -2 -19 12 -32 38 0 2 -31 10 -67 17
-37 8 -71 17 -78 21 -17 10 20 34 53 34 57 0 79 23 33 34 -14 4 -37 14 -50 23
-23 14 -23 17 -9 33 9 10 13 24 9 34 -6 15 1 17 52 16 33 -1 86 2 119 5 33 3
101 7 150 10 278 14 378 21 470 36 33 5 123 11 200 14 77 2 162 8 188 13 26 5
114 7 195 4 81 -2 158 -4 172 -3 14 1 62 2 107 2 63 1 83 5 88 17 5 13 8 12
19 -3 12 -17 18 -18 57 -6 24 7 52 17 61 22 25 13 96 11 104 -3 4 -6 -2 -19
-14 -29 -28 -22 -28 -39 1 -39 29 0 53 36 37 55 -20 24 -1 35 63 35 34 0 91 5
126 10 51 7 68 6 85 -6 26 -18 29 -18 55 5 24 21 118 38 147 27 8 -3 25 -1 37
6 35 19 114 31 227 34 58 1 132 6 166 10 51 5 62 4 67 -10 4 -9 13 -16 22 -16
22 0 18 17 -5 23 -37 10 -24 32 38 65 32 17 47 21 56 12 10 -8 35 -3 95 20 46
16 91 30 102 30 11 0 37 11 59 25 22 14 48 25 57 25 10 0 27 7 37 15 11 8 37
15 57 15 21 0 41 5 44 10 3 6 24 10 45 10 60 0 113 26 156 76 42 50 104 87
137 82 18 -2 23 -11 25 -45 2 -25 -4 -55 -14 -74 -15 -31 -15 -33 1 -45 16
-12 16 -15 -1 -53 -10 -23 -20 -41 -23 -41 -3 -1 -17 -10 -30 -20 -44 -37 -44
-131 0 -145 10 -3 37 -22 60 -41 29 -24 45 -32 53 -24 17 17 36 12 36 -10 0
-24 18 -25 67 -5 19 8 48 15 64 15 22 0 29 5 29 20 0 28 7 25 51 -19 l39 -39
51 19 c28 11 65 19 82 19 18 -1 50 3 72 9 32 8 42 8 51 -4 6 -8 24 -14 40 -14
68 1 137 -10 153 -25 24 -22 33 -20 66 14 16 17 36 30 44 30 25 1 52 26 46 42
-4 10 6 19 33 30 38 15 39 16 37 64 -1 27 -4 56 -8 64 -11 31 -16 109 -7 115
15 9 12 41 -5 55 -8 7 -15 23 -15 35 0 13 -11 30 -25 39 -14 9 -25 23 -25 31
0 20 93 21 109 1 7 -8 25 -17 41 -21 15 -3 46 -22 68 -41 22 -18 47 -34 56
-34 27 0 84 -32 80 -45 -9 -23 51 -47 146 -60 25 -3 62 -17 82 -32 27 -18 44
-24 63 -19 28 7 101 -10 125 -29 8 -7 53 -18 100 -24 141 -21 151 -23 157 -37
4 -10 9 -10 22 -2 11 7 30 8 47 3 16 -4 56 -8 89 -9 48 -1 65 -6 83 -24 23
-23 49 -25 44 -3 -1 6 7 11 18 11 11 0 20 -5 20 -10 0 -6 25 -10 58 -10 115 1
307 -7 322 -13 8 -4 63 -3 123 1 59 4 117 4 129 -1 12 -4 41 -5 64 -1 23 3 49
2 56 -2 18 -12 39 -13 233 -14 209 0 295 -7 295 -26 0 -18 19 -28 33 -16 35
27 127 17 127 -14 0 -11 -34 -13 -182 -13 -209 1 -467 -16 -515 -33 -25 -9
-41 -9 -65 -1 -32 11 -163 9 -198 -2 -43 -14 -95 36 -55 51 21 9 19 36 -2 32
-12 -2 -19 -14 -21 -33 -2 -17 -7 -33 -11 -38 -4 -4 -78 -8 -165 -8 -87 -1
-170 -4 -184 -8 -34 -10 -52 -4 -52 17 0 14 -1 14 -12 0 -19 -23 -93 -29 -136
-11 -31 13 -39 13 -62 1 -19 -11 -47 -13 -120 -8 -75 5 -100 4 -118 -8 -18
-12 -32 -13 -77 -4 -38 8 -64 8 -81 1 -15 -5 -35 -7 -44 -4 -10 3 -21 1 -25
-5 -9 -14 -45 -12 -74 4 -21 12 -28 12 -46 0 -16 -10 -52 -12 -165 -7 -231 9
-223 10 -254 -15 -34 -26 -68 -28 -92 -5 -22 23 -130 20 -156 -4 -16 -14 -18
-14 -24 1 -7 17 -54 23 -54 6 0 -18 -46 -11 -65 10 l-18 20 -24 -22 c-19 -18
-36 -23 -74 -23 -47 0 -61 8 -72 40 -2 5 -17 1 -33 -10 -25 -16 -51 -19 -189
-21 -136 -3 -236 -8 -465 -26 -29 -2 -36 1 -38 17 -2 18 -10 20 -55 19 -30 -1
-71 -10 -96 -23 -58 -27 -184 -30 -213 -4 -15 14 -22 14 -46 3 -34 -16 -130
-25 -229 -20 -25 1 -319 -8 -492 -15 -79 -4 -155 -11 -170 -16 -18 -7 -39 -7
-68 2 -33 9 -59 9 -120 -1 -43 -7 -90 -13 -105 -12 -28 1 -76 2 -125 1 -16 0
-112 1 -215 1 -116 1 -194 -3 -207 -9 -11 -6 -33 -11 -50 -11 -24 0 -31 4 -31
20 0 11 -4 20 -10 20 -5 0 -10 -7 -10 -15 0 -35 -123 -32 -159 4 -26 26 -53
27 -75 2 -12 -13 -38 -21 -81 -26 -68 -7 -79 -13 -65 -35 6 -10 26 -12 90 -7
44 4 269 9 498 11 229 3 476 7 547 9 72 2 252 7 400 11 199 6 280 11 309 22
32 12 56 13 125 5 47 -5 136 -8 196 -6 61 2 238 6 395 9 352 7 501 14 562 27
27 6 264 12 570 14 288 2 555 6 593 9 141 10 285 15 507 16 184 1 229 4 239
16 8 10 15 11 24 4 16 -14 187 -20 246 -9 25 4 205 11 400 14 195 4 374 9 399
12 84 11 183 4 210 -15 24 -17 22 -17 -100 -25 -69 -4 -179 -11 -245 -17 -168
-13 -280 -18 -510 -25 -110 -3 -240 -10 -290 -15 -49 -5 -177 -12 -283 -15
-107 -3 -198 -8 -203 -11 -15 -9 -10 -44 6 -44 8 0 15 -4 15 -10 0 -13 -27
-13 -35 -1 -3 6 -20 4 -41 -5 -24 -10 -50 -13 -75 -9 -36 6 -76 -6 -90 -27 -7
-11 -155 -11 -194 0 -43 12 -45 39 -2 47 18 4 42 5 53 3 11 -2 19 3 19 12 0
10 10 14 29 13 38 -3 45 -12 22 -29 -17 -12 -17 -14 -3 -14 9 0 25 10 36 21
16 17 28 21 54 16 19 -3 39 -1 45 5 6 6 23 6 48 -1 54 -15 64 -14 64 9 0 19
-7 20 -247 18 -235 -1 -293 -6 -293 -26 0 -5 11 -14 23 -19 13 -6 34 -31 45
-55 12 -23 33 -63 47 -88 32 -56 30 -92 -5 -100 -18 -4 -25 -12 -25 -30 0 -22
5 -25 39 -28 22 -2 51 -12 65 -23 15 -12 28 -16 34 -10 14 14 -1 31 -27 31
-20 0 -23 5 -24 55 -1 52 0 55 26 61 15 3 34 8 42 11 31 10 182 32 193 27 7
-2 50 1 97 6 47 6 122 14 168 19 54 5 87 12 92 21 9 14 28 15 180 5 51 -3 140
13 140 25 0 14 -60 20 -130 14 -77 -8 -159 3 -125 16 42 16 132 21 157 9 22
-9 30 -8 54 10 25 18 36 20 74 12 l45 -8 -30 -13 -30 -12 30 -13 c23 -10 42
-10 83 -2 51 11 71 27 33 27 -11 0 -22 4 -26 9 -8 14 30 23 68 16 24 -5 37 -2
46 9 20 24 32 19 25 -10 l-7 -26 79 7 c44 4 90 12 104 18 14 6 28 10 32 9 19
-4 180 20 226 34 29 9 59 13 67 10 23 -8 377 52 477 82 42 13 111 23 180 26
62 3 128 8 146 12 28 6 32 4 32 -15 0 -18 4 -21 22 -15 29 9 57 44 58 72 0 27
-33 80 -66 105 -63 48 -214 55 -819 43 -226 -5 -328 -3 -460 10 -93 9 -252 18
-353 20 -101 2 -189 7 -195 11 -7 4 -59 13 -117 19 -116 13 -189 28 -217 43
-10 6 -64 24 -120 41 -56 16 -105 35 -108 41 -9 13 -201 106 -240 115 -16 4
-39 14 -50 24 -11 10 -38 23 -60 30 -49 15 -102 42 -150 74 -65 44 -127 69
-204 82 -42 7 -98 18 -126 24 -27 6 -78 9 -111 6 -48 -5 -64 -3 -74 9 -13 16
-38 17 -140 5z m259 -75 c18 -18 11 -25 -31 -34 -37 -8 -50 -38 -24 -53 9 -5
14 -13 11 -18 -8 -14 -78 1 -100 21 -11 10 -41 23 -68 28 -41 10 -53 8 -92
-10 -37 -17 -48 -19 -60 -9 -18 15 -19 38 -5 75 9 23 13 25 25 15 11 -9 32
-11 73 -5 31 4 74 7 94 7 20 -1 49 5 64 13 24 12 32 12 63 -1 20 -8 42 -21 50
-29z m150 -34 c12 -8 9 -12 -15 -22 -16 -6 -39 -16 -52 -22 -31 -14 -48 3 -33
32 9 16 21 21 49 21 20 0 44 -4 51 -9z m-549 -9 c0 -16 -48 -54 -59 -47 -18
11 -12 31 12 43 27 13 47 15 47 4z m-34 -134 c4 -5 0 -16 -9 -26 -14 -15 -17
-41 -17 -142 0 -175 -18 -200 -146 -200 -54 0 -74 19 -74 71 0 33 4 41 26 51
20 10 30 9 55 -6 17 -10 32 -16 35 -14 2 3 1 55 -3 117 -5 95 -9 113 -25 122
-10 5 -18 17 -18 25 0 14 13 16 84 13 46 -2 88 -7 92 -11z m310 -19 c36 -34
34 -100 -3 -127 l-28 -20 23 -31 c12 -17 22 -41 22 -54 0 -13 9 -32 20 -42 43
-39 15 -75 -59 -75 -58 0 -71 18 -71 97 0 49 -5 71 -17 86 -16 17 -16 20 -2
30 21 16 30 56 20 92 -6 23 -13 30 -32 30 l-24 0 -3 -139 c-2 -119 0 -141 14
-157 10 -11 15 -21 13 -23 -2 -2 -39 -6 -81 -9 -84 -7 -102 1 -72 34 26 29 34
242 10 290 -13 26 -14 34 -4 41 7 4 66 6 131 4 107 -3 121 -6 143 -27z m336 7
c55 -36 56 -86 0 -133 l-26 -22 24 -9 c42 -16 62 -46 58 -88 -2 -31 -11 -44
-45 -70 l-42 -32 -103 5 c-127 6 -135 8 -117 29 19 24 20 274 0 297 -7 9 -11
24 -7 32 8 23 221 15 258 -9z m1009 -631 c0 -5 -9 -11 -21 -13 -20 -3 -27 8
-13 22 10 9 34 3 34 -9z m84 -80 c-41 -15 -93 -25 -125 -25 -35 0 -64 -6 -78
-16 -15 -10 -34 -14 -55 -10 -18 3 -90 2 -162 -3 -76 -4 -138 -4 -149 2 -35
17 1 29 98 31 69 2 101 7 113 18 15 13 42 15 155 12 83 -2 139 0 143 6 3 6 34
10 68 9 l62 0 -70 -24z"/>
<path d="M5365 1928 c-3 -7 -4 -74 -2 -148 2 -132 3 -135 24 -138 17 -3 26 3
33 23 16 43 12 93 -10 115 -24 24 -25 36 -5 44 18 7 21 86 3 104 -16 16 -37
15 -43 0z"/>
<path d="M1373 2203 c-19 -7 -16 -40 4 -47 21 -8 36 6 31 30 -3 19 -16 25 -35
17z"/>
<path d="M1034 2185 c-8 -19 3 -35 25 -35 27 0 33 12 14 32 -20 22 -32 23 -39
3z"/>
<path d="M987 2183 c-12 -11 -8 -23 8 -23 8 0 15 7 15 15 0 16 -12 20 -23 8z"/>
<path d="M1313 2145 c-3 -9 -3 -18 0 -21 9 -9 27 6 27 22 0 19 -19 18 -27 -1z"/>
<path d="M2326 2153 c-3 -3 -6 -12 -6 -20 0 -18 69 -93 86 -93 22 0 16 38 -7
50 -11 7 -18 17 -16 24 6 14 -46 49 -57 39z"/>
<path d="M2230 2120 c0 -13 7 -20 20 -20 13 0 20 7 20 20 0 13 -7 20 -20 20
-13 0 -20 -7 -20 -20z"/>
<path d="M2754 2126 c-8 -22 3 -33 18 -18 9 9 9 15 0 24 -9 9 -13 7 -18 -6z"/>
<path d="M2962 2129 c2 -6 8 -10 13 -10 5 0 11 4 13 10 2 6 -4 11 -13 11 -9 0
-15 -5 -13 -11z"/>
<path d="M5730 2132 c0 -5 14 -19 32 -30 23 -15 37 -18 55 -11 13 5 36 6 52 3
35 -7 49 11 21 26 -29 16 -160 26 -160 12z"/>
<path d="M8930 2096 c0 -38 16 -57 26 -32 8 21 -3 66 -16 66 -6 0 -10 -15 -10
-34z"/>
<path d="M2058 2085 c-3 -24 0 -35 9 -35 15 0 28 44 18 59 -12 21 -23 11 -27
-24z"/>
<path d="M5966 2078 c-29 -42 -13 -61 46 -53 54 7 64 32 23 59 -33 22 -51 20
-69 -6z"/>
<path d="M2630 2045 c0 -8 5 -15 10 -15 6 0 10 7 10 15 0 8 -4 15 -10 15 -5 0
-10 -7 -10 -15z"/>
<path d="M3127 2036 c-3 -8 -2 -18 3 -21 13 -8 20 9 11 24 -6 10 -10 9 -14 -3z"/>
<path d="M8901 2030 c-17 -10 -7 -40 14 -40 8 0 15 9 15 19 0 24 -12 32 -29
21z"/>
<path d="M2472 2013 c4 -21 33 -25 33 -3 0 8 -8 16 -18 18 -14 3 -18 -1 -15
-15z"/>
<path d="M2572 2000 c-17 -27 -17 -25 33 -60 53 -37 83 -32 62 10 -7 14 -22
29 -34 35 -11 6 -27 16 -35 22 -11 9 -16 8 -26 -7z"/>
<path d="M2935 1990 c-8 -13 20 -24 36 -15 8 6 7 10 -2 16 -18 11 -26 11 -34
-1z"/>
<path d="M6585 1940 c-3 -6 1 -13 10 -16 19 -8 30 0 20 15 -8 14 -22 14 -30 1z"/>
<path d="M8871 1941 c-15 -10 -8 -41 9 -41 15 0 25 29 14 40 -5 5 -15 5 -23 1z"/>
<path d="M8847 1873 c-13 -12 -7 -43 8 -43 8 0 15 6 15 13 0 18 -15 38 -23 30z"/>
<path d="M7040 1820 c0 -11 7 -20 15 -20 8 0 15 9 15 20 0 11 -7 20 -15 20 -8
0 -15 -9 -15 -20z"/>
<path d="M8812 1804 c4 -21 22 -23 26 -1 2 10 -3 17 -13 17 -10 0 -15 -6 -13
-16z"/>
<path d="M7107 1763 c-15 -15 -5 -23 28 -23 39 0 47 14 13 24 -29 7 -33 7 -41
-1z"/>
<path d="M8757 1723 c-4 -3 -7 -14 -7 -22 0 -9 -9 -22 -20 -29 -11 -7 -17 -18
-14 -27 9 -21 34 -19 34 4 0 10 7 21 15 25 8 3 15 17 15 31 0 24 -10 32 -23
18z"/>
<path d="M4395 1700 c12 -13 22 -17 28 -11 13 13 -1 31 -25 31 -21 0 -21 -1
-3 -20z"/>
<path d="M3795 1661 c-5 -10 35 -44 43 -37 6 7 -18 46 -28 46 -5 0 -11 -4 -15
-9z"/>
<path d="M6523 1630 c-25 -10 -32 -40 -9 -40 7 0 19 7 26 15 7 8 26 15 42 15
17 0 27 4 23 10 -8 12 -52 12 -82 0z"/>
<path d="M6356 1572 c-3 -6 -1 -14 5 -17 15 -10 25 3 12 16 -7 7 -13 7 -17 1z"/>
<path d="M7633 1573 c-7 -2 -13 -9 -13 -15 0 -12 41 -6 41 7 1 12 -11 15 -28
8z"/>
<path d="M5875 1539 c-10 -15 3 -25 16 -12 7 7 7 13 1 17 -6 3 -14 1 -17 -5z"/>
<path d="M3840 1530 c0 -5 7 -10 15 -10 8 0 15 5 15 10 0 6 -7 10 -15 10 -8 0
-15 -4 -15 -10z"/>
<path d="M1987 1414 c-9 -9 2 -24 17 -24 7 0 21 7 32 15 18 14 17 14 -12 15
-17 0 -34 -3 -37 -6z"/>
<path d="M850 1390 l-25 -7 27 -8 c16 -4 36 -4 45 -1 15 6 15 8 3 16 -17 11
-16 11 -50 0z"/>
<path d="M1642 1373 c-8 -14 -29 -17 -126 -18 -91 -1 -120 -5 -133 -17 -14
-15 -14 -17 3 -25 20 -10 265 0 283 12 6 3 11 15 11 26 0 10 7 19 15 19 8 0
15 5 15 10 0 17 -58 11 -68 -7z"/>
<path d="M8470 1383 c-32 -6 -50 -21 -50 -43 0 -17 -54 -39 -101 -41 l-24 0
25 -10 c34 -14 36 -17 14 -34 -10 -8 -37 -15 -59 -15 -38 -1 -39 -1 -20 -16
20 -15 20 -15 1 -30 -11 -8 -33 -14 -48 -14 -35 0 -91 -27 -83 -40 4 -6 13
-10 21 -10 31 0 11 -17 -60 -48 -56 -25 -76 -39 -78 -55 -4 -26 -73 -62 -138
-73 -57 -8 -64 -13 -50 -29 16 -20 4 -35 -28 -35 -15 0 -34 -4 -42 -10 -11 -7
-8 -11 15 -21 28 -10 28 -12 10 -19 -11 -5 -32 -9 -46 -9 -14 -1 -35 -10 -48
-22 -17 -16 -30 -19 -59 -15 -45 8 -77 -9 -49 -25 21 -13 13 -29 -15 -29 -11
0 -38 -5 -58 -11 -29 -9 -36 -15 -33 -30 4 -14 0 -19 -14 -19 -10 0 -24 5 -29
10 -16 16 -41 2 -48 -26 -4 -14 -18 -30 -31 -36 -14 -6 -25 -15 -25 -19 0 -13
-67 -49 -92 -49 -14 0 -31 -6 -37 -14 -6 -7 -26 -16 -43 -20 -17 -3 -39 -12
-47 -19 -9 -8 -43 -20 -76 -27 -33 -7 -77 -24 -98 -38 -31 -21 -41 -23 -61
-14 -19 8 -27 8 -36 -4 -7 -8 -29 -14 -49 -14 -20 0 -45 -7 -55 -15 -11 -8
-26 -15 -34 -15 -8 0 -27 -11 -44 -25 -16 -14 -41 -25 -55 -25 -14 0 -31 -7
-38 -16 -15 -21 -163 -24 -200 -4 -23 12 -28 11 -50 -10 -14 -13 -38 -24 -53
-25 -17 0 -27 -5 -27 -15 0 -11 -9 -14 -36 -12 -30 3 -37 -1 -42 -17 -4 -18
-10 -20 -58 -14 -50 6 -53 5 -40 -10 16 -20 20 -19 -56 -22 -37 -1 -72 -9 -87
-19 -27 -17 -131 -22 -154 -7 -9 5 -32 1 -61 -9 -34 -13 -63 -17 -111 -13 -61
5 -66 4 -75 -18 -9 -21 -16 -24 -57 -22 -38 2 -49 -1 -57 -16 -9 -15 -32 -20
-139 -31 -98 -9 -134 -9 -151 -1 -24 13 -45 5 -75 -28 -19 -21 -19 -21 20 -21
22 0 45 5 52 12 7 7 64 12 161 14 86 2 159 8 171 14 12 6 33 9 48 6 15 -4 39
0 54 8 19 10 38 12 74 5 40 -8 54 -6 87 11 30 16 58 21 123 21 46 0 86 5 89
10 4 5 20 9 36 9 17 0 43 7 58 14 15 8 38 12 50 9 11 -3 27 0 35 6 7 6 20 9
29 5 8 -3 26 0 39 7 46 26 91 38 108 29 12 -6 23 -4 36 5 11 8 28 15 39 15 11
0 30 7 41 15 12 8 39 15 60 16 36 1 86 16 143 43 13 6 31 10 40 8 9 -1 41 7
71 19 30 12 64 22 75 23 11 1 36 12 55 24 22 14 45 21 60 18 14 -2 34 2 44 10
11 8 32 14 47 14 15 0 29 7 33 15 3 8 14 15 25 15 11 0 32 6 48 14 49 25 101
46 114 46 7 0 20 6 28 13 9 7 34 19 56 26 22 8 54 25 71 37 17 13 39 24 50 24
10 1 48 16 84 35 36 19 84 43 106 54 23 11 61 31 84 46 24 15 48 28 54 29 6 1
28 14 47 29 20 15 44 27 53 27 10 0 20 9 23 20 3 11 11 20 19 20 14 0 136 83
223 152 30 24 66 49 80 57 14 7 36 24 48 36 12 13 42 38 67 56 26 18 46 38 46
45 0 7 10 19 23 25 31 17 86 81 87 101 0 9 8 19 18 23 9 3 31 17 47 30 32 26
26 29 -35 18z"/>
<path d="M5100 1344 c-162 -7 -338 -17 -390 -23 -52 -7 -129 -13 -170 -16
-125 -7 -866 -6 -895 1 -17 4 -32 1 -43 -9 -14 -12 -65 -17 -252 -23 -129 -4
-258 -7 -287 -6 -28 2 -54 -2 -58 -8 -4 -7 53 -10 178 -10 172 0 186 -1 211
-21 25 -20 28 -20 45 -5 11 10 45 19 85 23 36 3 66 10 66 15 0 6 40 9 93 8 50
-1 236 2 412 5 176 3 389 6 473 6 102 0 160 4 174 12 17 10 22 9 35 -10 19
-29 41 -29 45 -1 l3 21 415 -1 c228 0 421 -1 428 -1 6 -1 12 -10 12 -20 0 -11
9 -23 21 -26 37 -12 14 -30 -40 -32 -120 -4 -92 -30 34 -32 71 -1 115 -14 85
-25 -8 -3 -35 -9 -60 -14 l-45 -9 29 -12 c16 -6 36 -9 46 -6 9 3 42 -6 74 -20
66 -29 66 -29 66 -10 0 44 -130 205 -165 205 -9 0 -20 10 -26 23 -10 21 -15
22 -142 22 -73 0 -139 3 -147 6 -8 3 -148 0 -310 -7z"/>
<path d="M1252 1338 c-7 -9 -32 -12 -79 -10 -93 3 -101 3 -160 -2 -29 -3 -57
-7 -63 -11 -29 -18 16 -24 164 -21 161 4 212 14 203 39 -5 17 -52 20 -65 5z"/>
<path d="M2615 1262 c-12 -12 89 -30 109 -20 14 8 15 12 6 18 -14 9 -106 10
-115 2z"/>
<path d="M2408 1248 c9 -9 15 -9 24 0 9 9 7 12 -12 12 -19 0 -21 -3 -12 -12z"/>
<path d="M1300 1233 c-225 -16 -290 -21 -315 -24 -23 -2 53 -16 141 -25 56 -6
61 -5 66 14 6 20 12 21 247 20 133 0 244 2 247 5 9 9 -85 20 -121 14 -19 -3
-47 -2 -62 2 -16 4 -107 1 -203 -6z"/>
<path d="M1835 1230 c-25 -6 -20 -8 27 -9 31 0 60 4 63 9 7 12 -45 12 -90 0z"/>
<path d="M1960 1230 c0 -6 40 -10 100 -10 60 0 100 4 100 10 0 6 -40 10 -100
10 -60 0 -100 -4 -100 -10z"/>
<path d="M5305 1209 c-10 -15 1 -22 24 -14 12 3 19 11 16 16 -8 12 -32 11 -40
-2z"/>
<path d="M5405 1211 c-3 -5 4 -13 16 -16 27 -9 91 3 84 16 -8 12 -92 12 -100
0z"/>
<path d="M5065 1180 c-17 -7 -14 -9 13 -9 20 -1 31 3 27 9 -7 12 -13 12 -40 0z"/>
<path d="M4858 1167 c24 -7 36 -7 44 1 9 9 1 12 -32 11 l-45 -1 33 -11z"/>
<path d="M5173 1173 c9 -2 25 -2 35 0 9 3 1 5 -18 5 -19 0 -27 -2 -17 -5z"/>
<path d="M5515 1151 c-16 -7 -14 -9 16 -15 20 -3 44 -3 54 1 18 6 18 7 -1 14
-24 10 -44 10 -69 0z"/>
<path d="M2360 1133 l-35 -17 29 -4 c20 -2 35 3 50 17 26 26 7 28 -44 4z"/>
<path d="M1119 1119 c-10 -6 -7 -9 14 -9 29 0 35 5 14 13 -8 3 -20 1 -28 -4z"/>
<path d="M2970 1120 c-11 -7 -4 -10 28 -10 23 0 42 5 42 10 0 13 -50 13 -70 0z"/>
<path d="M4810 1120 c-43 -7 -42 -7 25 -10 63 -2 315 -3 404 -1 19 1 32 4 29
7 -9 8 -407 12 -458 4z"/>
<path d="M7610 1120 c0 -5 18 -10 40 -10 22 0 40 5 40 10 0 6 -18 10 -40 10
-22 0 -40 -4 -40 -10z"/>
<path d="M2740 1101 c13 -11 28 -17 33 -14 13 8 -14 33 -37 33 -20 0 -20 -1 4
-19z"/>
<path d="M4343 1088 c2 -8 18 -12 42 -11 20 2 44 -1 53 -6 10 -5 33 -3 57 4
l40 13 -50 2 c-27 1 -72 4 -98 6 -37 4 -48 1 -44 -8z"/>
<path d="M3945 1080 c3 -5 21 -10 40 -10 19 0 37 5 40 10 4 6 -12 10 -40 10
-28 0 -44 -4 -40 -10z"/>
<path d="M5447 1076 c-6 -16 16 -40 26 -29 4 3 7 15 7 25 0 21 -25 24 -33 4z"/>
<path d="M7970 1080 c0 -5 7 -10 15 -10 8 0 15 5 15 10 0 6 -7 10 -15 10 -8 0
-15 -4 -15 -10z"/>
<path d="M3660 1060 c0 -5 16 -10 36 -10 21 0 33 4 29 10 -3 6 -19 10 -36 10
-16 0 -29 -4 -29 -10z"/>
<path d="M7539 1051 c12 -8 51 -4 51 5 0 2 -15 4 -32 4 -23 0 -29 -3 -19 -9z"/>
<path d="M7901 1037 c-13 -16 -5 -27 20 -27 24 0 35 20 18 31 -19 12 -25 11
-38 -4z"/>
<path d="M5346 1033 c-7 -7 13 -33 25 -33 5 0 9 6 9 14 0 15 -24 28 -34 19z"/>
<path d="M5796 1021 c-8 -13 11 -61 24 -61 5 0 10 16 10 35 0 34 -20 49 -34
26z"/>
<path d="M4788 989 c-24 -13 -23 -29 1 -29 21 0 45 23 34 33 -8 9 -15 8 -35
-4z"/>
<path d="M4655 970 c3 -5 13 -10 21 -10 8 0 12 5 9 10 -3 6 -13 10 -21 10 -8
0 -12 -4 -9 -10z"/>
<path d="M1671 941 c-20 -13 3 -23 34 -15 20 5 23 9 13 15 -17 11 -29 11 -47
0z"/>
<path d="M3495 940 c-9 -14 37 -31 50 -19 6 7 5 13 -5 19 -20 13 -37 12 -45 0z"/>
<path d="M3888 917 c-21 -17 -45 -49 -53 -69 -15 -38 -19 -124 -7 -166 10 -34
69 -90 104 -97 47 -11 53 6 20 56 -50 75 -51 205 -3 270 26 35 26 39 -1 39
-13 0 -40 -15 -60 -33z"/>
<path d="M4010 943 c0 -4 18 -28 39 -53 31 -36 42 -43 52 -33 9 9 10 23 3 50
-8 36 -12 38 -51 41 -24 2 -43 0 -43 -5z"/>
<path d="M5592 937 c-23 -11 -23 -13 -20 -143 4 -156 12 -174 84 -174 46 0 67
16 37 27 -10 4 -21 11 -25 17 -4 6 -8 73 -8 149 0 136 0 137 -22 136 -13 0
-33 -5 -46 -12z"/>
<path d="M7054 939 c-9 -16 2 -22 21 -11 15 8 16 10 1 15 -8 3 -18 2 -22 -4z"/>
<path d="M7550 930 c0 -6 -10 -15 -22 -21 -19 -8 -18 -9 11 -4 18 3 40 5 47 5
8 0 14 7 14 15 0 9 -9 15 -25 15 -14 0 -25 -5 -25 -10z"/>
<path d="M7650 930 c0 -5 6 -10 14 -10 8 0 18 5 21 10 3 6 -3 10 -14 10 -12 0
-21 -4 -21 -10z"/>
<path d="M6643 913 c-13 -4 -19 -43 -8 -43 4 0 20 7 37 16 24 12 28 18 17 25
-15 9 -27 10 -46 2z"/>
<path d="M7223 903 c15 -2 39 -2 55 0 15 2 2 4 -28 4 -30 0 -43 -2 -27 -4z"/>
<path d="M3511 887 c-6 -8 -8 -16 -5 -19 10 -10 44 4 44 18 0 18 -24 18 -39 1z"/>
<path d="M6177 884 c-4 -4 1 -16 10 -26 13 -14 14 -21 5 -30 -15 -15 -16 -92
-2 -83 6 3 10 18 10 32 0 15 7 34 15 43 8 9 16 27 17 41 2 19 -2 25 -22 27
-14 2 -29 0 -33 -4z"/>
<path d="M7635 880 c-3 -5 3 -10 14 -10 12 0 21 5 21 10 0 6 -6 10 -14 10 -8
0 -18 -4 -21 -10z"/>
<path d="M5835 871 l-60 -6 0 -105 c0 -58 -2 -112 -5 -120 -4 -11 5 -16 34
-18 22 -2 49 -1 61 2 22 6 22 7 8 48 -21 59 -7 198 18 182 5 -3 9 -18 9 -33 0
-54 41 -67 80 -26 l24 26 -25 24 c-28 29 -61 35 -144 26z"/>
<path d="M5406 857 c-16 -12 -17 -14 -1 -27 13 -11 16 -31 14 -109 l-2 -96 52
-3 53 -3 -6 28 c-4 15 -8 60 -10 99 -4 70 -20 114 -43 114 -6 0 -17 2 -25 5
-7 3 -22 -1 -32 -8z"/>
<path d="M6017 864 c-12 -13 -8 -42 12 -76 11 -18 25 -53 32 -78 7 -25 24 -57
38 -72 l25 -28 23 22 c29 27 29 66 1 115 -13 21 -27 56 -33 78 -9 38 -12 40
-50 43 -23 2 -44 0 -48 -4z"/>
<path d="M6537 863 c-14 -13 -6 -23 18 -23 28 0 34 15 9 24 -19 7 -19 7 -27
-1z"/>
<path d="M4855 850 c-3 -5 -1 -27 6 -48 11 -40 9 -134 -5 -164 -10 -22 13 -33
48 -24 35 9 50 55 43 133 -6 56 -11 71 -33 90 -29 25 -49 29 -59 13z"/>
<path d="M5034 840 c-25 -17 -33 -30 -39 -66 -10 -68 2 -120 33 -145 23 -18
35 -20 87 -14 70 7 98 25 41 25 -20 0 -46 5 -56 10 -23 12 -37 75 -21 94 8 10
8 16 -4 26 -12 10 -13 16 -1 45 21 49 9 56 -40 25z"/>
<path d="M5119 855 c0 -3 -1 -29 -1 -57 l-1 -53 44 0 c42 0 44 1 47 31 2 25
-3 37 -28 58 -28 23 -59 34 -61 21z"/>
<path d="M5269 853 c-1 -5 0 -49 1 -99 1 -58 -2 -94 -9 -98 -40 -25 29 -57 81
-37 25 10 26 12 16 42 -6 17 -8 60 -5 97 6 83 -3 102 -48 102 -19 0 -36 -3
-36 -7z"/>
<path d="M6385 849 c-4 -6 -5 -13 -2 -16 7 -7 27 6 27 18 0 12 -17 12 -25 -2z"/>
<path d="M6691 851 c-11 -7 -9 -10 8 -16 22 -7 41 0 41 16 0 11 -30 12 -49 0z"/>
<path d="M4597 818 c-16 -38 -8 -71 18 -77 40 -7 60 62 27 92 -26 23 -30 22
-45 -15z"/>
<path d="M4289 835 c-3 -3 -4 -51 -2 -107 4 -115 15 -138 68 -138 42 0 47 7
30 41 -9 16 -15 56 -15 97 0 39 -5 75 -12 85 -14 17 -60 32 -69 22z"/>
<path d="M4465 830 c-3 -5 -6 -61 -7 -122 l-1 -113 49 0 c46 0 49 1 47 25 -2
14 -4 65 -6 113 -3 93 -10 107 -54 107 -12 0 -25 -4 -28 -10z"/>
<path d="M4711 666 l-1 -176 24 -6 c37 -9 82 9 78 32 -9 66 -15 151 -16 229
l-1 90 -42 3 -41 3 -1 -175z"/>
<path d="M3490 821 c-13 -9 -12 -11 5 -11 11 0 31 -7 44 -16 21 -15 24 -15 39
0 9 8 13 18 10 22 -12 11 -83 15 -98 5z"/>
<path d="M4176 814 c-33 -32 -10 -79 36 -72 25 3 33 26 24 64 -7 28 -37 32
-60 8z"/>
<path d="M6955 820 c-24 -6 -18 -8 30 -8 42 0 54 2 40 8 -24 10 -30 10 -70 0z"/>
<path d="M3315 810 c-3 -5 3 -10 14 -10 11 0 23 5 26 10 3 6 -3 10 -14 10 -11
0 -23 -4 -26 -10z"/>
<path d="M6740 771 c0 -23 -8 -34 -36 -50 -20 -12 -34 -24 -31 -27 6 -7 87 16
105 29 15 12 16 49 0 65 -21 21 -38 13 -38 -17z"/>
<path d="M7143 781 c-15 -24 -8 -31 33 -31 31 0 32 1 21 25 -14 30 -38 32 -54
6z"/>
<path d="M7016 731 c-6 -9 42 -46 50 -39 5 6 -26 48 -36 48 -5 0 -11 -4 -14
-9z"/>
<path d="M3592 688 c2 -30 8 -43 18 -43 9 0 15 10 15 27 1 14 7 33 14 42 12
14 10 16 -18 16 -32 0 -32 -1 -29 -42z"/>
<path d="M6560 720 c-13 -9 -13 -11 0 -20 22 -15 54 -8 58 13 4 19 -32 24 -58
7z"/>
<path d="M2453 697 c-4 -8 -16 -16 -25 -20 -16 -6 -15 -9 8 -32 14 -14 27 -25
29 -25 7 0 75 70 75 76 0 4 -11 3 -24 0 -14 -3 -28 -2 -31 4 -9 14 -22 12 -32
-3z"/>
<path d="M2765 700 c-3 -5 3 -10 14 -10 12 0 21 5 21 10 0 6 -6 10 -14 10 -8
0 -18 -4 -21 -10z"/>
<path d="M3095 700 c-4 -6 12 -10 40 -10 28 0 44 4 40 10 -3 6 -21 10 -40 10
-19 0 -37 -4 -40 -10z"/>
<path d="M3273 698 c2 -7 12 -13 22 -13 10 0 20 6 23 13 2 7 -6 12 -23 12 -17
0 -25 -5 -22 -12z"/>
<path d="M4183 695 c-16 -11 -23 -26 -23 -49 0 -42 15 -56 60 -56 41 0 54 8
41 24 -5 6 -11 29 -13 51 -3 46 -27 57 -65 30z"/>
<path d="M6310 690 c0 -13 30 -13 50 0 11 7 7 10 -17 10 -18 0 -33 -4 -33 -10z"/>
<path d="M7098 693 c-23 -6 -23 -32 -2 -40 18 -7 47 23 38 38 -5 9 -8 10 -36
2z"/>
<path d="M4069 658 c-6 -13 -21 -31 -33 -40 -16 -13 -18 -20 -9 -29 20 -20 76
1 83 31 14 54 -18 83 -41 38z"/>
<path d="M2313 647 c16 -25 37 -34 37 -16 0 6 7 17 15 23 13 9 8 12 -25 12
-39 1 -40 1 -27 -19z"/>
<path d="M1913 653 c-20 -7 -15 -23 7 -23 11 0 20 4 20 9 0 13 -12 19 -27 14z"/>
<path d="M2076 653 c-11 -11 -6 -23 9 -23 8 0 15 4 15 9 0 13 -16 22 -24 14z"/>
<path d="M1980 641 c0 -12 29 -23 41 -15 5 3 7 10 4 15 -8 12 -45 12 -45 0z"/>
<path d="M3195 640 c-8 -12 20 -24 35 -15 6 3 8 11 5 16 -8 12 -32 12 -40 -1z"/>
<path d="M7185 640 c-4 -6 11 -10 37 -9 36 1 39 2 18 9 -36 11 -48 11 -55 0z"/>
<path d="M2780 630 c0 -13 20 -13 40 0 12 8 9 10 -12 10 -16 0 -28 -4 -28 -10z"/>
<path d="M3415 609 c-4 -6 -4 -13 -1 -16 8 -8 36 5 36 17 0 13 -27 13 -35 -1z"/>
<path d="M2394 580 c1 -16 4 -30 7 -30 11 0 36 25 42 43 5 13 1 17 -22 17 -25
0 -28 -3 -27 -30z"/>
<path d="M6003 600 c-33 -13 -31 -64 2 -86 39 -26 58 -15 61 34 2 32 -2 45
-16 52 -21 11 -18 11 -47 0z"/>
<path d="M2893 584 c-3 -8 -1 -20 6 -27 14 -14 47 15 37 32 -10 16 -36 13 -43
-5z"/>
<path d="M2982 592 c-13 -2 -21 -9 -19 -15 5 -15 46 -22 59 -9 13 13 -12 29
-40 24z"/>
<path d="M3320 575 c0 -8 7 -15 15 -15 8 0 15 7 15 15 0 8 -7 15 -15 15 -8 0
-15 -7 -15 -15z"/>
<path d="M2064 571 c3 -5 15 -7 26 -4 28 7 25 13 -6 13 -14 0 -23 -4 -20 -9z"/>
<path d="M6383 573 c-16 -6 -17 -39 -2 -49 16 -9 43 21 36 40 -7 16 -13 18
-34 9z"/>
<path d="M5141 556 c-13 -15 1 -56 18 -56 20 0 32 29 21 49 -13 25 -23 26 -39
7z"/>
<path d="M3682 544 c4 -21 22 -23 26 -1 2 10 -3 17 -13 17 -10 0 -15 -6 -13
-16z"/>
<path d="M2293 543 c15 -2 39 -2 55 0 15 2 2 4 -28 4 -30 0 -43 -2 -27 -4z"/>
<path d="M2007 523 c-15 -14 -6 -24 20 -21 34 4 43 28 11 28 -14 0 -28 -3 -31
-7z"/>
<path d="M2500 513 c1 -5 16 -18 35 -30 38 -24 50 -9 17 20 -19 17 -52 23 -52
10z"/>
<path d="M2658 508 c17 -8 26 -8 34 0 9 9 4 12 -22 11 -33 0 -34 -1 -12 -11z"/>
<path d="M6335 496 l-30 -13 33 -7 c35 -8 60 4 48 23 -9 14 -14 13 -51 -3z"/>
<path d="M5618 473 c-22 -5 -23 -26 -2 -44 16 -13 44 -4 52 19 4 14 -28 30
-50 25z"/>
<path d="M2902 459 c2 -6 8 -10 13 -10 5 0 11 4 13 10 2 6 -4 11 -13 11 -9 0
-15 -5 -13 -11z"/>
<path d="M5840 460 c0 -5 7 -10 15 -10 8 0 15 5 15 10 0 6 -7 10 -15 10 -8 0
-15 -4 -15 -10z"/>
<path d="M6170 460 c0 -5 -14 -13 -30 -17 -34 -9 -40 -26 -11 -31 12 -2 24 5
31 17 6 12 17 21 25 21 8 0 15 5 15 10 0 6 -7 10 -15 10 -8 0 -15 -4 -15 -10z"/>
<path d="M5391 441 c-7 -13 -6 -24 3 -36 12 -17 17 -17 47 -5 52 20 55 27 14
44 -48 20 -52 20 -64 -3z"/>
<path d="M6672 448 c-17 -17 -15 -28 7 -28 16 0 31 18 31 36 0 9 -27 3 -38 -8z"/>
<path d="M4963 433 c-22 -8 -14 -23 12 -23 16 0 25 6 25 15 0 15 -14 18 -37 8z"/>
<path d="M5182 434 c-24 -11 -1 -24 41 -24 25 0 37 4 32 9 -13 13 -57 21 -73
15z"/>
<path d="M3337 424 c-9 -10 12 -34 30 -34 19 0 12 34 -8 38 -8 1 -18 0 -22 -4z"/>
<path d="M4031 421 c-19 -12 -6 -43 16 -39 10 2 18 12 18 22 0 22 -14 29 -34
17z"/>
<path d="M3077 406 c-12 -10 -15 -16 -7 -21 16 -10 40 2 40 20 0 18 -9 19 -33
1z"/>
<path d="M2495 399 c-10 -15 1 -23 20 -15 9 3 13 10 10 16 -8 13 -22 13 -30
-1z"/>
<path d="M5897 399 c-27 -16 -9 -31 26 -23 43 9 52 15 36 25 -18 11 -40 11
-62 -2z"/>
<path d="M5100 378 c0 -25 47 -40 91 -28 58 16 50 34 -12 26 -33 -5 -56 -3
-65 5 -11 9 -14 8 -14 -3z"/>
<path d="M5332 378 c-16 -16 -16 -71 1 -66 18 6 33 56 21 68 -7 7 -14 6 -22
-2z"/>
<path d="M2697 368 c-7 -4 -10 -8 -7 -8 3 -1 30 -2 60 -4 59 -3 80 1 80 15 0
10 -116 7 -133 -3z"/>
<path d="M3925 369 c-10 -15 1 -23 20 -15 9 3 13 10 10 16 -8 13 -22 13 -30
-1z"/>
<path d="M4350 360 c0 -13 7 -20 20 -20 13 0 20 7 20 20 0 13 -7 20 -20 20
-13 0 -20 -7 -20 -20z"/>
<path d="M5425 340 c0 -27 4 -40 13 -40 9 0 12 11 10 37 -4 50 -23 53 -23 3z"/>
<path d="M6464 365 c-8 -21 4 -35 32 -35 19 0 24 5 24 25 0 20 -5 25 -25 25
-14 0 -28 -7 -31 -15z"/>
<path d="M4712 359 c2 -6 7 -10 11 -10 4 1 14 1 22 1 8 0 15 5 15 10 0 6 -12
10 -26 10 -14 0 -24 -5 -22 -11z"/>
<path d="M6057 344 c-16 -16 -5 -25 26 -22 17 2 31 8 30 13 -3 12 -46 19 -56
9z"/>
<path d="M3355 311 c-8 -14 10 -22 30 -15 13 5 14 8 3 15 -17 11 -26 11 -33 0z"/>
<path d="M3777 314 c-15 -15 -7 -45 11 -42 9 2 17 12 17 22 0 20 -16 31 -28
20z"/>
<path d="M5065 300 c-8 -13 25 -13 45 0 12 8 9 10 -12 10 -15 0 -30 -4 -33
-10z"/>
<path d="M5790 293 c-13 -3 -35 -14 -49 -24 -13 -10 -34 -19 -47 -19 -36 0
-29 -17 11 -24 23 -5 42 -2 57 8 13 8 47 17 75 21 80 10 78 25 -7 39 -8 2 -26
1 -40 -1z"/>
<path d="M3980 270 c-14 -26 -5 -40 24 -40 23 0 42 33 30 52 -10 15 -43 8 -54
-12z"/>
<path d="M5570 274 c0 -17 22 -14 28 4 2 7 -3 12 -12 12 -9 0 -16 -7 -16 -16z"/>
<path d="M5520 251 l-25 -7 22 -8 c24 -8 43 -1 43 15 0 10 -4 10 -40 0z"/>
<path d="M3216 224 c-9 -22 -8 -24 9 -18 8 4 15 12 15 20 0 19 -16 18 -24 -2z"/>
<path d="M3615 220 c-8 -13 4 -32 16 -25 12 8 12 35 0 35 -6 0 -13 -4 -16 -10z"/>
<path d="M5090 214 c0 -17 22 -14 28 4 2 7 -3 12 -12 12 -9 0 -16 -7 -16 -16z"/>
<path d="M5192 210 c-18 -29 -16 -32 21 -28 24 2 33 8 35 26 3 17 -1 22 -20
22 -13 0 -29 -9 -36 -20z"/>
<path d="M3900 205 c-24 -14 -24 -14 -3 -15 12 0 25 5 28 11 11 17 2 18 -25 4z"/>
<path d="M4277 209 c-20 -12 -23 -29 -3 -29 17 0 40 26 29 33 -5 3 -16 1 -26
-4z"/>
<path d="M4465 191 c-6 -11 9 -23 19 -14 9 9 7 23 -3 23 -6 0 -12 -4 -16 -9z"/>
<path d="M4610 190 c0 -5 9 -10 21 -10 11 0 17 5 14 10 -3 6 -13 10 -21 10 -8
0 -14 -4 -14 -10z"/>
<path d="M4735 190 c-4 -6 5 -10 19 -10 14 0 26 5 26 10 0 6 -9 10 -19 10 -11
0 -23 -4 -26 -10z"/>
<path d="M3545 180 c3 -5 13 -10 21 -10 8 0 14 5 14 10 0 6 -9 10 -21 10 -11
0 -17 -4 -14 -10z"/>
<path d="M4367 23 c-2 -1 -87 -3 -189 -4 -103 -1 -193 -6 -200 -10 -7 -5 211
-9 485 -9 346 0 498 3 495 11 -2 7 -102 11 -296 13 -161 1 -294 1 -295 -1z"/>
</g>
</svg>
